<svg width="164" height="110" viewBox="0 0 164 110" fill="none" xmlns="http://www.w3.org/2000/svg">
<path d="M1.72909 108.265C2.23092 95.6592 12.1766 85.6666 24.2891 85.6666H89.8972H90.8972V84.6666V39.6193C90.8972 28.1643 100.958 19.314 112.319 20.7744L118.822 21.6103C131.412 23.2285 142.605 30.4257 149.301 41.2084C151.995 45.5462 149.76 51.2551 144.836 52.6098L133.746 55.6612C123.955 58.3552 117.495 67.6694 118.401 77.7838L120.292 98.8768C120.27 104.106 116.21 108.265 111.292 108.265H1.72909Z" fill="#FDCC00" stroke="#EBC422" stroke-width="2"/>
<path d="M123.995 23.1554V23.1554C126.746 15.3647 133.391 9.59473 141.49 7.96462L145.981 7.06079" stroke="#EBC422" stroke-width="2"/>
<path d="M136.019 27.4651V27.4651C138.769 19.6744 145.415 13.9044 153.514 12.2743L158.005 11.3705" stroke="#EBC422" stroke-width="2"/>
<circle cx="149.134" cy="4.58881" r="3.72168" fill="#FDCC00" stroke="#EBC422"/>
<circle cx="158.879" cy="11.0276" r="3.72168" fill="#FDCC00" stroke="#EBC422"/>
<path d="M13.8738 58.683C13.8738 35.9148 32.3311 17.4575 55.0992 17.4575V17.4575C77.8674 17.4575 96.3247 35.9148 96.3247 58.683V75.7258C96.3247 84.0101 89.609 90.7258 81.3247 90.7258H28.8738C20.5895 90.7258 13.8738 84.0101 13.8738 75.7258V58.683Z" fill="url(#paint0_linear_343_728)"/>
<path d="M59.6172 66.2625L58.5244 65.4472C54.9908 62.8111 54.309 57.788 57.012 54.3054V54.3054C57.8578 53.2156 58.975 52.367 60.2518 51.8447L60.8812 51.5872C66.5536 49.2667 72.9939 52.3191 74.7891 58.179L75.0622 59.0704C76.6401 64.2209 74.3528 69.768 69.6032 72.3094L66.7209 73.8517C65.0282 74.7575 63.175 75.3242 61.2652 75.5201V75.5201C52.7533 76.3931 45.2861 69.8662 45.0125 61.3142L44.9286 58.6941C44.7071 51.7703 48.6612 45.3894 54.96 42.5062L56.1715 41.9516C59.6628 40.3535 63.553 39.8387 67.3397 40.4738L69.2564 40.7952C76.3074 41.9777 82.0818 47.0489 84.1648 53.8883V53.8883C86.4356 61.3439 83.8818 69.428 77.7402 74.2262L74.9039 76.442C70.9454 79.5347 66.1189 81.3122 61.1 81.5257L60.2868 81.5603C48.9502 82.0427 38.8316 74.2007 36.2574 63.1497V63.1497C34.7208 56.5526 36.152 49.511 40.2096 44.0871V44.0871C43.6262 39.5201 48.6204 36.3884 54.2195 35.302L61.5289 33.8838" stroke="#086832" stroke-width="4"/>
<defs>
<linearGradient id="paint0_linear_343_728" x1="55.0992" y1="23.9212" x2="19.3328" y2="8.35802" gradientUnits="userSpaceOnUse">
<stop stop-color="#017A36"/>
<stop offset="1" stop-color="#007C37"/>
</linearGradient>
</defs>
</svg>
