<svg width="164" height="110" viewBox="0 0 164 110" fill="none" xmlns="http://www.w3.org/2000/svg">
<path d="M1.7081 108.709C2.20993 96.103 12.1556 86.1104 24.2681 86.1104H89.8762H90.8762V85.1104V40.0632C90.8762 28.6082 100.937 19.7579 112.299 21.2183L118.801 22.0541C131.391 23.6723 142.584 30.8695 149.28 41.6523C151.974 45.9901 149.739 51.699 144.815 53.0536L133.725 56.1051C123.934 58.7991 117.474 68.1132 118.38 78.2276L120.271 99.3206C120.249 104.55 116.189 108.709 111.271 108.709H1.7081Z" fill="#FDCC00" stroke="#EBC422" stroke-width="2"/>
<path d="M123.974 23.5992V23.5992C126.725 15.8085 133.37 10.0386 141.469 8.40846L145.96 7.50464" stroke="#EBC422" stroke-width="2"/>
<path d="M135.998 27.9089V27.9089C138.748 20.1182 145.393 14.3483 153.493 12.7182L157.984 11.8143" stroke="#EBC422" stroke-width="2"/>
<circle cx="149.113" cy="5.03265" r="3.72168" fill="#FDCC00" stroke="#EBC422"/>
<circle cx="158.858" cy="11.4714" r="3.72168" fill="#FDCC00" stroke="#EBC422"/>
<path d="M13.8528 59.1268C13.8528 36.3586 32.3101 17.9014 55.0782 17.9014V17.9014C77.8464 17.9014 96.3037 36.3586 96.3037 59.1268V76.1697C96.3037 84.4539 89.588 91.1697 81.3037 91.1697H28.8528C20.5685 91.1697 13.8528 84.4539 13.8528 76.1697V59.1268Z" fill="url(#paint0_linear_395_704)"/>
<path d="M59.5962 66.7064L58.5034 65.8911C54.9698 63.2549 54.288 58.2319 56.991 54.7492V54.7492C57.8368 53.6594 58.954 52.8109 60.2308 52.2885L60.8602 52.0311C66.5326 49.7105 72.9729 52.763 74.7681 58.6228L75.0412 59.5143C76.6191 64.6648 74.3318 70.2118 69.5823 72.7533L66.6999 74.2956C65.0072 75.2013 63.154 75.768 61.2442 75.9639V75.9639C52.7323 76.8369 45.2651 70.3101 44.9915 61.758L44.9076 59.138C44.6861 52.2142 48.6402 45.8333 54.939 42.95L56.1505 42.3955C59.6418 40.7973 63.532 40.2826 67.3187 40.9176L69.2354 41.2391C76.2864 42.4215 82.0608 47.4928 84.1438 54.3321V54.3321C86.4146 61.7877 83.8608 69.8719 77.7192 74.67L74.8829 76.8859C70.9244 79.9785 66.0979 81.756 61.079 81.9696L60.2658 82.0042C48.9292 82.4866 38.8106 74.6445 36.2364 63.5935V63.5935C34.6998 56.9964 36.131 49.9549 40.1886 44.531V44.531C43.6052 39.964 48.5994 36.8323 54.1985 35.7459L61.5079 34.3276" stroke="#086832" stroke-width="4"/>
<path d="M14.5088 66.2548V76.9239V76.9239C12.0061 76.9239 9.97736 74.8951 9.97736 72.3924V70.7863C9.97736 68.2836 12.0061 66.2548 14.5088 66.2548V66.2548Z" fill="#CF231F"/>
<defs>
<linearGradient id="paint0_linear_395_704" x1="55.0782" y1="24.365" x2="19.3118" y2="8.80186" gradientUnits="userSpaceOnUse">
<stop stop-color="#017A36"/>
<stop offset="1" stop-color="#007C37"/>
</linearGradient>
</defs>
</svg>
