<svg width="67" height="67" viewBox="0 0 67 67" fill="none" xmlns="http://www.w3.org/2000/svg">
<path d="M61.793 30.4275C63.793 31.5822 63.793 34.4689 61.793 35.6237L21.293 59.0063C19.293 60.161 16.793 58.7177 16.793 56.4083V9.64288C16.793 7.33348 19.293 5.89011 21.293 7.04481L61.793 30.4275Z" fill="url(#paint0_linear_426_715)"/>
<path d="M16.959 57.2615L61.9458 30.6303L62.8267 31.4505L63.2301 32.4111L63.2301 33.7559L62.5769 35.1007L41.4854 47.3415L30.8788 53.5554L21.4684 59.1298L20.0788 59.4289L19.5525 59.4289L18.9994 59.2896L18.52 59.1298L18.016 58.7979L17.3645 58.1219L17.1311 57.6917L16.959 57.2615Z" fill="#05652F"/>
<path d="M20.4986 6.60647L62.0157 30.5074L56.1587 34.0781L16.7956 11.1755L16.7956 9.56291L17.0345 8.51772L17.4825 7.68157L18.1693 7.08432L19.095 6.60647L20.4986 6.60647Z" fill="#04893E"/>
<path d="M16.7855 11.1772L19.8908 12.9623L20.0415 55.3851L16.9303 57.1982L16.7854 57.0151L16.7855 34.2702V11.1772Z" fill="#039342"/>
<defs>
<linearGradient id="paint0_linear_426_715" x1="60.4705" y1="33.0256" x2="71.9245" y2="3.4035" gradientUnits="userSpaceOnUse">
<stop stop-color="#017A36"/>
<stop offset="1" stop-color="#007C37"/>
</linearGradient>
</defs>
</svg>
