<svg width="67" height="40" viewBox="0 0 67 40" fill="none" xmlns="http://www.w3.org/2000/svg">
<path d="M0.518674 37.4529C0.821076 33.4135 4.76059 30.1086 9.72866 30.1086H36.7975H37.2975V29.6086V16.9922C37.2975 11.7437 41.8447 7.65167 47.0642 8.20328L50.4099 8.55686C54.5624 8.99571 58.3474 11.1357 60.8642 14.4676C62.0103 15.9848 61.2076 18.1792 59.353 18.5988L56.7114 19.1964C51.6385 20.344 48.2337 25.1146 48.7975 30.2851L49.2505 34.4401C49.234 36.0385 47.6909 37.4529 45.6248 37.4529H0.518674Z" fill="#FDCC00" stroke="#EBC422"/>
<path d="M50.8656 8.74272V8.74272C52.0024 6.0955 54.7382 4.14334 58.0884 3.58899L59.9368 3.28312" stroke="#EBC422"/>
<path d="M55.8263 10.2046V10.2046C56.9631 7.55741 59.6989 5.60525 63.049 5.0509L64.8975 4.74504" stroke="#EBC422"/>
<path d="M62.4793 2.44477C62.4793 2.87243 62.0194 3.37684 61.2375 3.37684C60.4557 3.37684 59.9957 2.87243 59.9957 2.44477C59.9957 2.01711 60.4557 1.5127 61.2375 1.5127C62.0194 1.5127 62.4793 2.01711 62.4793 2.44477Z" fill="#FDCC00" stroke="#EBC422"/>
<path d="M66.5001 4.62885C66.5001 5.05651 66.0401 5.56093 65.2583 5.56093C64.4764 5.56093 64.0165 5.05651 64.0165 4.62885C64.0165 4.20119 64.4764 3.69678 65.2583 3.69678C66.0401 3.69678 66.5001 4.20119 66.5001 4.62885Z" fill="#FDCC00" stroke="#EBC422"/>
<path d="M2.10956 34.652L48.9697 34.3799L48.6374 35.1237L48.3076 35.766L47.7521 36.3562L46.8321 36.8075L46.0857 36.9811L1.22131 36.9225L2.10956 34.652Z" fill="#EBC422"/>
<path d="M51.1301 21.8455L49.4539 25.3096L48.7835 34.8827L39.4252 35.2973L51.1301 21.8455Z" fill="#EBC422"/>
<path d="M8.00909 30.8983L14.9095 27.5312L18.901 24.4262L23.8432 20.9501L28.729 18.0462L33.9808 15.416L37.2768 15.416L38.7893 13.2622L39.0501 12.5958L39.7832 11.5478L41.6966 10.1464L44.3377 8.90674L47.6795 8.90674L12.914 31.2214L1.16382 36.9351L1.16382 36.6572L1.28007 36.1475L1.86448 34.8331L2.75193 33.588L3.48147 32.8388L5.90697 31.2214L8.00909 30.8983Z" fill="#FFDF5C"/>
<path d="M5.43152 23.819C5.43152 14.4252 13.0467 6.81006 22.4405 6.81006V6.81006C31.8342 6.81006 39.4494 14.4252 39.4494 23.819V25.9285C39.4494 29.0962 36.8815 31.6641 33.7139 31.6641H11.1671C7.99941 31.6641 5.43152 29.0962 5.43152 25.9285V23.819Z" fill="url(#paint0_linear_484_980)"/>
<path d="M24.3045 23.3657L24.1248 23.2555C22.6013 22.321 22.2257 20.3731 23.3412 19.1914V19.1914C23.6181 18.8981 23.9689 18.6759 24.3658 18.5424L25.2971 18.2291C27.4004 17.5217 29.851 18.7097 30.6364 20.8176V20.8176C31.3048 22.6112 30.5345 24.4887 28.821 25.2425L27.0452 26.0238C26.4708 26.2765 25.8473 26.4333 25.2013 26.4878V26.4878C21.6542 26.7869 18.3693 24.011 18.2364 20.5969V20.5969C18.1495 18.3636 19.4624 16.4063 21.5827 15.6083L23.0946 15.0393C24.4051 14.5461 25.8564 14.3923 27.3099 14.5927L28.9151 14.8141C31.4118 15.1583 33.5804 16.8679 34.4301 19.1618V19.1618C35.3573 21.6647 34.5146 24.3117 32.3475 25.7037L30.2351 27.0606C28.8372 27.9585 27.1791 28.4641 25.432 28.5252L23.2645 28.6011C19.3892 28.7367 15.7503 26.1346 14.7175 22.4893V22.4893C14.0512 20.1374 14.589 17.7208 16.1641 15.9898L16.5735 15.5398C17.8158 14.1745 19.5292 13.2699 21.4546 12.9627L25.0932 12.3822" stroke="#086832"/>
<rect x="13.6787" y="11.0105" width="3.98914" height="6.95145" rx="1.99457" transform="rotate(42.9625 13.6787 11.0105)" fill="#028F40"/>
<rect x="16.9822" y="8.38062" width="2.86356" height="2.99744" rx="1.43178" transform="rotate(42.9625 16.9822 8.38062)" fill="#028F40"/>
<path d="M6.48792 21.2087V27.2087V27.2087C5.38335 27.2087 4.48792 26.3133 4.48792 25.2087V23.2087C4.48792 22.1042 5.38335 21.2087 6.48792 21.2087V21.2087Z" fill="#CF231F"/>
<defs>
<linearGradient id="paint0_linear_484_980" x1="22.4405" y1="9.00266" x2="8.73004" y2="1.74653" gradientUnits="userSpaceOnUse">
<stop stop-color="#017A36"/>
<stop offset="1" stop-color="#007C37"/>
</linearGradient>
</defs>
</svg>
