<svg width="51" height="28" viewBox="0 0 51 28" fill="none" xmlns="http://www.w3.org/2000/svg">
<path d="M0.643555 10.0568C0.643555 4.53397 5.12071 0.0568237 10.6436 0.0568237H31.9728C37.4957 0.0568237 41.9728 4.53398 41.9728 10.0568V24.1721H0.643555V10.0568Z" fill="#FDCC00"/>
<path d="M41.9728 14.7155C46.4203 14.7155 50.0257 18.3209 50.0257 22.7684V24.172H41.9728V14.7155Z" fill="#FDCC00"/>
<path d="M11.4667 24.172C11.4667 25.8346 10.1422 27.1688 8.52492 27.1688C6.90765 27.1688 5.58313 25.8346 5.58313 24.172C5.58313 22.5095 6.90765 21.1753 8.52492 21.1753C10.1422 21.1753 11.4667 22.5095 11.4667 24.172Z" fill="#1E1E1E" stroke="white"/>
<ellipse cx="8.52493" cy="24.172" rx="0.686671" ry="0.69763" fill="#D9D9D9"/>
<path d="M39.795 24.172C39.795 25.8346 38.4704 27.1688 36.8532 27.1688C35.2359 27.1688 33.9114 25.8346 33.9114 24.172C33.9114 22.5095 35.2359 21.1753 36.8532 21.1753C38.4704 21.1753 39.795 22.5095 39.795 24.172Z" fill="#1E1E1E" stroke="white"/>
<ellipse cx="36.8532" cy="24.172" rx="0.686671" ry="0.69763" fill="#D9D9D9"/>
<path d="M50.0645 19.8067C50.3406 19.8067 50.5645 19.5828 50.5645 19.3067C50.5645 19.0305 50.3406 18.8067 50.0645 18.8067V19.8067ZM47.0645 19.8067H48.5645V18.8067H47.0645V19.8067ZM48.5645 19.8067H49.3145V18.8067H48.5645V19.8067ZM49.3145 19.8067H50.0645V18.8067H49.3145V19.8067Z" fill="black"/>
<path d="M50.0645 21.8067C50.3406 21.8067 50.5645 21.5828 50.5645 21.3067C50.5645 21.0305 50.3406 20.8067 50.0645 20.8067V21.8067ZM47.0645 21.8067H50.0645V20.8067H47.0645V21.8067Z" fill="black"/>
<path d="M50.0645 23.8067C50.3406 23.8067 50.5645 23.5828 50.5645 23.3067C50.5645 23.0305 50.3406 22.8067 50.0645 22.8067V23.8067ZM47.0645 23.8067H50.0645V22.8067H47.0645V23.8067Z" fill="black"/>
<rect x="6.33765" y="4.25322" width="5.62901" height="5.71884" rx="2" fill="white"/>
<rect x="13.7201" y="4.25322" width="5.62901" height="5.71884" rx="2" fill="white"/>
<rect x="21.1027" y="4.25322" width="5.62901" height="5.71884" rx="2" fill="white"/>
<rect x="35.1025" y="4.25322" width="3.50121" height="5.71884" rx="1.75061" fill="white"/>
<path d="M0.643555 15.419H29.3041C29.786 15.419 30.059 14.8667 29.7664 14.4839C29.4016 14.0067 29.9111 13.3569 30.4615 13.5974L34.6309 15.419L34.6637 15.4443C34.876 15.6082 34.859 15.9338 34.6309 16.0747H0.643555V15.419Z" fill="#017A36"/>
<path d="M48.9397 17.9532H11.0042C10.488 17.9532 10.2305 18.5783 10.597 18.9419C11.0305 19.3721 10.5876 20.0933 10.0078 19.9012L4.12945 17.9532L4.10022 17.9361C3.84923 17.7892 3.86608 17.4209 4.12945 17.2975H48.9397V17.9532Z" fill="#017A36"/>
<rect x="1.26147" y="13.4993" width="2.90965" height="1.23581" rx="0.617905" transform="rotate(90 1.26147 13.4993)" fill="#CF231F"/>
</svg>
