<svg width="94" height="38" viewBox="0 0 94 38" fill="none" xmlns="http://www.w3.org/2000/svg">
<path d="M14.4996 37.324C14.802 33.2846 18.7415 29.9797 23.7096 29.9797H50.7784H51.2784V29.4797V16.8633C51.2784 11.6148 55.8257 7.52275 61.0452 8.07436L64.3908 8.42794C68.5433 8.86679 72.3283 11.0068 74.8452 14.3387C75.9912 15.8559 75.1885 18.0503 73.3339 18.4698L70.6923 19.0674C65.6195 20.215 62.2147 24.9857 62.7784 30.1561L63.2315 34.3112C63.2149 35.9096 61.6719 37.324 59.6058 37.324H14.4996Z" fill="#FDCC00" stroke="#EBC422"/>
<path d="M64.8466 8.6139V8.6139C65.9833 5.96668 68.7192 4.01452 72.0693 3.46018L73.9178 3.15431" stroke="#EBC422"/>
<path d="M69.8073 10.0758V10.0758C70.944 7.42861 73.6799 5.47645 77.03 4.9221L78.8785 4.61624" stroke="#EBC422"/>
<path d="M76.4603 2.31577C76.4603 2.74343 76.0003 3.24785 75.2185 3.24785C74.4366 3.24785 73.9767 2.74343 73.9767 2.31577C73.9767 1.88811 74.4366 1.3837 75.2185 1.3837C76.0003 1.3837 76.4603 1.88811 76.4603 2.31577Z" fill="#FDCC00" stroke="#EBC422"/>
<path d="M80.481 4.49993C80.481 4.92759 80.0211 5.432 79.2392 5.432C78.4574 5.432 77.9974 4.92759 77.9974 4.49993C77.9974 4.07227 78.4574 3.56786 79.2392 3.56786C80.0211 3.56786 80.481 4.07227 80.481 4.49993Z" fill="#FDCC00" stroke="#EBC422"/>
<path d="M19.4125 23.69C19.4125 14.2963 27.0276 6.68109 36.4214 6.68109V6.68109C45.8152 6.68109 53.4304 14.2963 53.4304 23.69V25.7996C53.4304 28.9672 50.8625 31.5351 47.6948 31.5351H25.148C21.9804 31.5351 19.4125 28.9672 19.4125 25.7996V23.69Z" fill="url(#paint0_linear_395_716)"/>
<path d="M38.2855 23.2367L38.1058 23.1264C36.5823 22.1919 36.2067 20.2441 37.3221 19.0624V19.0624C37.5991 18.769 37.9498 18.5468 38.3468 18.4133L39.2781 18.1001C41.3813 17.3926 43.832 18.5807 44.6174 20.6885V20.6885C45.2857 22.4821 44.5154 24.3597 42.802 25.1135L41.0261 25.8947C40.4518 26.1474 39.8283 26.3042 39.1822 26.3587V26.3587C35.6352 26.6578 32.3502 23.8819 32.2174 20.4679V20.4679C32.1304 18.2345 33.4434 16.2772 35.5636 15.4793L37.0756 14.9102C38.3861 14.417 39.8374 14.2633 41.2908 14.4637L42.8961 14.685C45.3928 15.0293 47.5613 16.7388 48.4111 19.0327V19.0327C49.3382 21.5357 48.4956 24.1827 46.3285 25.5747L44.216 26.9316C42.8182 27.8295 41.1601 28.3351 39.4129 28.3962L37.2455 28.472C33.3701 28.6076 29.7312 26.0055 28.6985 22.3603V22.3603C28.0322 20.0083 28.57 17.5918 30.145 15.8607L30.5545 15.4107C31.7968 14.0454 33.5101 13.1408 35.4356 12.8336L39.0742 12.2532" stroke="#086832"/>
<path d="M20.2405 22.1553V26.0542V26.0542C19.3259 26.0542 18.5845 25.3128 18.5845 24.3982V23.8113C18.5845 22.8967 19.3259 22.1553 20.2405 22.1553V22.1553Z" fill="#CF231F"/>
<defs>
<linearGradient id="paint0_linear_395_716" x1="36.4214" y1="8.87369" x2="22.711" y2="1.61756" gradientUnits="userSpaceOnUse">
<stop stop-color="#017A36"/>
<stop offset="1" stop-color="#007C37"/>
</linearGradient>
</defs>
</svg>
