<svg width="70" height="38" viewBox="0 0 70 38" fill="none" xmlns="http://www.w3.org/2000/svg">
<path d="M68.2234 10.1995C68.2234 4.67662 63.7462 0.199463 58.2234 0.199463H22.8422C17.3193 0.199463 12.8422 4.67662 12.8422 10.1995V32.5139H68.2234V10.1995Z" fill="#FDCC00"/>
<path d="M12.8422 19.8421H12.0513C6.52846 19.8421 2.05131 24.3193 2.05131 29.8421V32.5139H12.8422V19.8421Z" fill="#FDCC00"/>
<path d="M53.5503 32.5139C53.5503 34.833 55.3987 36.6995 57.6623 36.6995C59.9259 36.6995 61.7743 34.833 61.7743 32.5139C61.7743 30.1947 59.9259 28.3283 57.6623 28.3283C55.3987 28.3283 53.5503 30.1947 53.5503 32.5139Z" fill="#1E1E1E" stroke="white"/>
<ellipse cx="0.920139" cy="0.934824" rx="0.920139" ry="0.934824" transform="matrix(-1 0 0 1 58.5824 31.579)" fill="#D9D9D9"/>
<path d="M15.5903 32.5139C15.5903 34.833 17.4388 36.6995 19.7023 36.6995C21.9659 36.6995 23.8143 34.833 23.8143 32.5139C23.8143 30.1947 21.9659 28.3283 19.7023 28.3283C17.4388 28.3283 15.5903 30.1947 15.5903 32.5139Z" fill="#1E1E1E" stroke="white"/>
<ellipse cx="0.920139" cy="0.934824" rx="0.920139" ry="0.934824" transform="matrix(-1 0 0 1 20.6224 31.579)" fill="#D9D9D9"/>
<path d="M1.28235 27.1742C1.00621 27.1742 0.782349 26.9504 0.782349 26.6742C0.782349 26.3981 1.00621 26.1742 1.28235 26.1742V27.1742ZM6.01929 27.1742H3.65082V26.1742H6.01929V27.1742ZM3.65082 27.1742H2.46658V26.1742H3.65082V27.1742ZM2.46658 27.1742H1.28235V26.1742H2.46658V27.1742Z" fill="black"/>
<path d="M1.28235 29.1742C1.00621 29.1742 0.782349 28.9504 0.782349 28.6742C0.782349 28.3981 1.00621 28.1742 1.28235 28.1742V29.1742ZM6.01929 29.1742H1.28235V28.1742H6.01929V29.1742Z" fill="black"/>
<path d="M1.28235 31.1742C1.00621 31.1742 0.782349 30.9504 0.782349 30.6742C0.782349 30.3981 1.00621 30.1742 1.28235 30.1742V31.1742ZM6.01929 31.1742H1.28235V30.1742H6.01929V31.1742Z" fill="black"/>
<rect width="7.54287" height="7.66325" rx="2" transform="matrix(-1 0 0 1 60.5931 5.82263)" fill="white"/>
<rect width="7.54287" height="7.66325" rx="2" transform="matrix(-1 0 0 1 50.7007 5.82263)" fill="white"/>
<rect width="7.54287" height="7.66325" rx="2" transform="matrix(-1 0 0 1 40.8081 5.82263)" fill="white"/>
<rect width="4.69162" height="7.66325" rx="2" transform="matrix(-1 0 0 1 22.0481 5.82263)" fill="white"/>
<path d="M68.2234 20.7848H29.8182C29.1725 20.7848 28.8067 20.0447 29.1988 19.5317C29.6876 18.8923 29.0048 18.0216 28.2673 18.3438L22.6804 20.7848L22.6364 20.8187C22.352 21.0383 22.3747 21.4745 22.6804 21.6634H68.2234V20.7848Z" fill="#017A36"/>
<path d="M3.50635 24.1807H54.3399C55.0316 24.1807 55.3767 25.0182 54.8856 25.5055C54.3046 26.082 54.8982 27.0484 55.6751 26.7909L63.5521 24.1807L63.5913 24.1577C63.9276 23.9608 63.905 23.4674 63.5521 23.302H3.50635V24.1807Z" fill="#017A36"/>
<rect width="3.89894" height="1.65598" rx="0.827992" transform="matrix(0 1 1 0 67.3953 18.2124)" fill="#CF231F"/>
</svg>
