<svg width="94" height="38" viewBox="0 0 94 38" fill="none" xmlns="http://www.w3.org/2000/svg">
<path d="M79.4487 20.6399L82.6848 20.6399C87.2917 20.6399 91.3025 23.7872 92.398 28.2619L93.5655 33.0309H82.6521L79.4487 20.6399Z" fill="#FDCC00"/>
<path d="M91.8303 28.5958C92.1065 28.5958 92.3303 28.3719 92.3303 28.0958C92.3303 27.8196 92.1065 27.5958 91.8303 27.5958V28.5958ZM91.8303 30.5958C92.1065 30.5958 92.3303 30.3719 92.3303 30.0958C92.3303 29.8196 92.1065 29.5958 91.8303 29.5958V30.5958ZM91.8303 32.5958C92.1065 32.5958 92.3303 32.3719 92.3303 32.0958C92.3303 31.8196 92.1065 31.5958 91.8303 31.5958V32.5958ZM87.0934 30.5958H91.8303V29.5958H87.0934V30.5958ZM87.0934 32.5958H91.8303V31.5958H87.0934V32.5958ZM87.0934 28.5958H91.8303V27.5958H87.0934V28.5958Z" fill="black"/>
<path d="M20.674 13.7505C18.482 7.26736 23.3035 0.547516 30.1471 0.547516H65.7406C70.1211 0.547516 73.9916 3.39841 75.2907 7.58176L83.0959 32.7153H27.0861L20.674 13.7505Z" fill="#FDCC00"/>
<path d="M45.2715 32.9074C45.2715 35.2266 43.423 37.093 41.1595 37.093C38.8959 37.093 37.0475 35.2266 37.0475 32.9074C37.0475 30.5883 38.8959 28.7218 41.1595 28.7218C43.423 28.7218 45.2715 30.5883 45.2715 32.9074Z" fill="#1E1E1E" stroke="white"/>
<ellipse cx="41.1595" cy="32.9074" rx="0.920139" ry="0.934824" fill="#D9D9D9"/>
<path d="M82.2314 32.9074C82.2314 35.2266 80.383 37.093 78.1194 37.093C75.8559 37.093 74.0074 35.2266 74.0074 32.9074C74.0074 30.5883 75.8559 28.7218 78.1194 28.7218C80.383 28.7218 82.2314 30.5883 82.2314 32.9074Z" fill="#1E1E1E" stroke="white"/>
<ellipse cx="78.1195" cy="32.9074" rx="0.920139" ry="0.934824" fill="#D9D9D9"/>
<rect x="35.3101" y="7.46983" width="7.62849" height="7.62849" rx="2" transform="rotate(-11.9471 35.3101 7.46983)" fill="#F1F1F1"/>
<rect x="45.0709" y="7.56537" width="7.62849" height="7.62849" rx="2" transform="rotate(-13.1493 45.0709 7.56537)" fill="#F1F1F1"/>
<rect x="55.9731" y="7.25" width="7.62849" height="7.62849" rx="2" transform="rotate(-9.11446 55.9731 7.25)" fill="#F1F1F1"/>
<rect x="67.6177" y="7.17543" width="4.74487" height="7.62849" rx="2" transform="rotate(-12.0211 67.6177 7.17543)" fill="#F1F1F1"/>
<path d="M24.6178 21.4919H68.0179C68.682 21.4919 69.0386 20.7113 68.6038 20.2093C68.0753 19.599 68.7154 18.6881 69.4686 18.9786L75.9866 21.4919L76.0285 21.5204C76.3352 21.7294 76.3125 22.1889 75.9866 22.3666H24.6178V21.4919Z" fill="#017A36"/>
<path d="M89.8269 24.8724H43.1611C42.4853 24.8724 42.1344 25.6781 42.5947 26.1729C43.147 26.7666 42.5301 27.7019 41.7669 27.428L34.6476 24.8724L34.607 24.8467C34.2869 24.6436 34.3096 24.1693 34.6476 23.9977H89.8269V24.8724Z" fill="#017A36"/>
<rect x="25.5931" y="18.6992" width="3.88125" height="1.67478" rx="0.83739" transform="rotate(90 25.5931 18.6992)" fill="#CF231F"/>
<path d="M7.20044 11.3387H8.62993L35.5252 10.9804V12.2056L7.83317 11.8128L7.20044 11.3387Z" fill="#FDCC00"/>
<path d="M7.16443 13.7977H8.2018L27.7195 13.6205V14.2262L7.62359 14.032L7.16443 13.7977Z" fill="#514D4D"/>
<path d="M6.96606 7.82488H8.00344L27.5211 7.64777V8.25337L7.42523 8.05922L6.96606 7.82488Z" fill="#514D4D"/>
<path d="M7.73145 16.4783H42.9754V17.0839L15.457 16.4783H7.73145Z" fill="#FDCC00"/>
<path d="M13.9875 24.6896H41.6118V25.2952L9.03662 24.6896L13.9875 24.6896Z" fill="#017A36"/>
<path d="M6.63734 20.1197L23.9183 19.8109V20.4165H0.497559L6.63734 20.1197Z" fill="#CF231F"/>
<circle cx="21.3268" cy="29.6961" r="5.11684" fill="#C7C4C4"/>
<circle cx="24.8836" cy="30.9421" r="5.11684" fill="#E6E6E6"/>
<circle cx="21.3268" cy="32.7153" r="5.11684" fill="#D9D9D9"/>
</svg>
