<svg width="94" height="37" viewBox="0 0 94 37" fill="none" xmlns="http://www.w3.org/2000/svg">
<path d="M14.0288 10C14.0288 4.47716 18.506 0 24.0288 0H59.41C64.9329 0 69.41 4.47715 69.41 10V32.3144H14.0288V10Z" fill="#FDCC00"/>
<path d="M69.41 19.6426H70.2009C75.7237 19.6426 80.2009 24.1198 80.2009 29.6426V32.3144H69.41V19.6426Z" fill="#FDCC00"/>
<path d="M28.7019 32.3144C28.7019 34.6335 26.8535 36.5 24.5899 36.5C22.3263 36.5 20.4779 34.6335 20.4779 32.3144C20.4779 29.9953 22.3263 28.1288 24.5899 28.1288C26.8535 28.1288 28.7019 29.9953 28.7019 32.3144Z" fill="#1E1E1E" stroke="#F1F1F1"/>
<ellipse cx="24.5899" cy="32.3144" rx="0.920139" ry="0.934824" fill="#D9D9D9"/>
<path d="M66.6619 32.3144C66.6619 34.6335 64.8134 36.5 62.5499 36.5C60.2863 36.5 58.4379 34.6335 58.4379 32.3144C58.4379 29.9953 60.2863 28.1288 62.5499 28.1288C64.8134 28.1288 66.6619 29.9953 66.6619 32.3144Z" fill="#1E1E1E" stroke="#F1F1F1"/>
<ellipse cx="62.5499" cy="32.3144" rx="0.920139" ry="0.934824" fill="#D9D9D9"/>
<path d="M79.2329 26.9748C79.5091 26.9748 79.7329 26.7509 79.7329 26.4748C79.7329 26.1986 79.5091 25.9748 79.2329 25.9748V26.9748ZM76.2329 26.9748H77.7329V25.9748H76.2329V26.9748ZM77.7329 26.9748H78.4829V25.9748H77.7329V26.9748ZM78.4829 26.9748H79.2329V25.9748H78.4829V26.9748Z" fill="black"/>
<path d="M79.2329 28.9748C79.5091 28.9748 79.7329 28.7509 79.7329 28.4748C79.7329 28.1986 79.5091 27.9748 79.2329 27.9748V28.9748ZM76.2329 28.9748H79.2329V27.9748H76.2329V28.9748Z" fill="black"/>
<path d="M79.2329 30.9748C79.5091 30.9748 79.7329 30.7509 79.7329 30.4748C79.7329 30.1986 79.5091 29.9748 79.2329 29.9748V30.9748ZM76.2329 30.9748H79.2329V29.9748H76.2329V30.9748Z" fill="black"/>
<rect x="21.6591" y="5.62317" width="7.54287" height="7.66325" rx="2" fill="#F1F1F1"/>
<rect x="31.5515" y="5.62317" width="7.54287" height="7.66325" rx="2" fill="#F1F1F1"/>
<rect x="41.4441" y="5.62317" width="7.54287" height="7.66325" rx="2" fill="#F1F1F1"/>
<rect x="60.2041" y="5.62317" width="4.69162" height="7.66325" rx="2" fill="#F1F1F1"/>
<path d="M14.0288 20.5853H52.434C53.0797 20.5853 53.4455 19.8453 53.0534 19.3322V19.3322C52.5646 18.6928 53.2474 17.8222 53.9849 18.1444L59.5718 20.5853L59.6158 20.6192C59.9002 20.8389 59.8775 21.2751 59.5718 21.464V21.464H14.0288V20.5853Z" fill="#017A36"/>
<path d="M78.7458 23.9812H27.9123C27.2206 23.9812 26.8755 24.8188 27.3666 25.306V25.306C27.9476 25.8825 27.354 26.8489 26.5771 26.5915L18.7001 23.9812L18.6609 23.9583C18.3246 23.7613 18.3472 23.2679 18.7001 23.1025V23.1025H78.7458V23.9812Z" fill="#017A36"/>
<path d="M14.8569 18.0129V21.9118V21.9118C13.9424 21.9118 13.2009 21.1704 13.2009 20.2558V19.6689C13.2009 18.7543 13.9424 18.0129 14.8569 18.0129V18.0129Z" fill="#CF231F"/>
</svg>
