<svg width="93" height="37" viewBox="0 0 93 37" fill="none" xmlns="http://www.w3.org/2000/svg">
<path d="M13.8279 10C13.8279 4.47716 18.305 0 23.8279 0H59.2091C64.7319 0 69.2091 4.47715 69.2091 10V32.3144H13.8279V10Z" fill="url(#paint0_linear_471_830)"/>
<path d="M69.2091 19.6426H70C75.5228 19.6426 79.9999 24.1198 79.9999 29.6426V32.3144L69.2091 32.3144L69.2091 19.6426Z" fill="url(#paint1_linear_471_830)"/>
<path d="M13.8279 20.5853H52.233C52.8788 20.5853 53.2446 19.8453 52.8524 19.3323V19.3323C52.3637 18.6929 53.0464 17.8222 53.784 18.1444L59.3709 20.5853L59.4148 20.6193C59.6993 20.8389 59.6766 21.2751 59.3709 21.464V21.464H13.8279V20.5853Z" fill="#017A36"/>
<path d="M78.2445 23.9813H27.5738C26.8844 23.9813 26.5379 24.8137 27.0237 25.3029V25.3029C27.5999 25.8831 27.0015 26.8447 26.2264 26.584L18.487 23.9813L18.4475 23.9579C18.1138 23.7596 18.1365 23.2693 18.487 23.1026V23.1026H77.5819L78.2445 23.9813Z" fill="#017A36"/>
<rect x="13.8279" y="29.9236" width="66.1721" height="2.39087" fill="#EFC103"/>
<path d="M28.501 32.3145C28.501 34.6336 26.6525 36.5001 24.389 36.5001C22.1254 36.5001 20.277 34.6336 20.277 32.3145C20.277 29.9954 22.1254 28.1289 24.389 28.1289C26.6525 28.1289 28.501 29.9954 28.501 32.3145Z" fill="#1E1E1E" stroke="white"/>
<ellipse cx="24.389" cy="32.3145" rx="0.920139" ry="0.934824" fill="#D9D9D9"/>
<path d="M66.4609 32.3145C66.4609 34.6336 64.6125 36.5001 62.3489 36.5001C60.0854 36.5001 58.2369 34.6336 58.2369 32.3145C58.2369 29.9954 60.0854 28.1289 62.3489 28.1289C64.6125 28.1289 66.4609 29.9954 66.4609 32.3145Z" fill="#1E1E1E" stroke="white"/>
<ellipse cx="62.349" cy="32.3145" rx="0.920139" ry="0.934824" fill="#D9D9D9"/>
<path d="M79.7369 27.6191C80.0131 27.6191 80.2369 27.3953 80.2369 27.1191C80.2369 26.843 80.0131 26.6191 79.7369 26.6191V27.6191ZM75 27.6191H77.3685V26.6191H75V27.6191ZM77.3685 27.6191H78.5527V26.6191H77.3685V27.6191ZM78.5527 27.6191H79.7369V26.6191H78.5527V27.6191Z" fill="black"/>
<path d="M79.7369 29.6191C80.0131 29.6191 80.2369 29.3953 80.2369 29.1191C80.2369 28.843 80.0131 28.6191 79.7369 28.6191V29.6191ZM75 29.6191H79.7369V28.6191H75V29.6191Z" fill="black"/>
<path d="M79.7369 31.6191C80.0131 31.6191 80.2369 31.3953 80.2369 31.1191C80.2369 30.843 80.0131 30.6191 79.7369 30.6191V31.6191ZM75 31.6191H79.7369V30.6191H75V31.6191Z" fill="black"/>
<rect x="21.5581" y="5.72329" width="7.34287" height="7.46325" rx="1.9" fill="#CEFCFF" stroke="#444444" stroke-width="0.2"/>
<rect x="31.4506" y="5.72329" width="7.34287" height="7.46325" rx="1.9" fill="#CEFCFF" stroke="#444444" stroke-width="0.2"/>
<rect x="41.3432" y="5.72329" width="7.34287" height="7.46325" rx="1.9" fill="#CEFCFF" stroke="#444444" stroke-width="0.2"/>
<rect x="60.1032" y="5.72329" width="4.49162" height="7.46325" rx="1.9" fill="#CEFCFF" stroke="#444444" stroke-width="0.2"/>
<rect x="24.2976" y="6.65039" width="0.907756" height="4.30334" rx="0.453878" transform="rotate(-30.0489 24.2976 6.65039)" fill="#E3FDFF"/>
<rect x="42.1586" y="7.54736" width="1.58814" height="5.36273" rx="0.794071" transform="rotate(-30.0489 42.1586 7.54736)" fill="#E3FDFF"/>
<rect x="33.9535" y="6.54956" width="1.63441" height="4.18567" rx="0.817207" transform="rotate(-30.0489 33.9535 6.54956)" fill="#E3FDFF"/>
<rect x="22.0159" y="7.63818" width="1.38755" height="6.43854" rx="0.693773" transform="rotate(-30.0489 22.0159 7.63818)" fill="#E3FDFF"/>
<rect x="44.8636" y="7.23706" width="0.907756" height="4.42768" rx="0.453878" transform="rotate(-30.0489 44.8636 7.23706)" fill="#E3FDFF"/>
<rect x="60.5107" y="8.17163" width="0.907756" height="3.22194" rx="0.453878" transform="rotate(-25.9169 60.5107 8.17163)" fill="#E3FDFF"/>
<rect x="62.478" y="8.53198" width="0.907756" height="2.31987" rx="0.453878" transform="rotate(-30.0489 62.478 8.53198)" fill="#E3FDFF"/>
<rect x="32.7601" y="7.89331" width="0.907756" height="5.29657" rx="0.453878" transform="rotate(-30.0489 32.7601 7.89331)" fill="#E3FDFF"/>
<path d="M23.0915 0.0114746H42.29H51.9243H56.8066H59.2074L60.3538 0.0953423L61.2911 0.230214L62.0127 0.39206L64.0493 1.20129L65.2206 1.98769H17.851L18.3936 1.61961L18.9554 1.26122L19.7884 0.854393L20.573 0.495998L21.6482 0.224697L22.3941 0.0987902L23.0915 0.0114746Z" fill="#FFDB44"/>
<rect x="14.656" y="16.3733" width="5.53858" height="1.65598" rx="0.827992" transform="rotate(90 14.656 16.3733)" fill="#CF231F"/>
<defs>
<linearGradient id="paint0_linear_471_830" x1="13.8279" y1="9.08774" x2="79.9999" y2="23.2267" gradientUnits="userSpaceOnUse">
<stop stop-color="#FFD900"/>
<stop offset="1" stop-color="#FDCC00"/>
</linearGradient>
<linearGradient id="paint1_linear_471_830" x1="13.8279" y1="9.08774" x2="79.9999" y2="23.2267" gradientUnits="userSpaceOnUse">
<stop stop-color="#FFD900"/>
<stop offset="1" stop-color="#FDCC00"/>
</linearGradient>
</defs>
</svg>
