<svg width="59" height="36" viewBox="0 0 59 36" fill="none" xmlns="http://www.w3.org/2000/svg">
<g filter="url(#filter0_d_339_625)">
<path d="M4.64355 10.0568C4.64355 4.53397 9.12071 0.0568237 14.6436 0.0568237H35.9728C41.4957 0.0568237 45.9728 4.53398 45.9728 10.0568V24.1721H4.64355V10.0568Z" fill="#FDCC00"/>
<path d="M45.9728 14.7155V14.7155C50.4203 14.7155 54.0257 18.3209 54.0257 22.7684V24.172H45.9728V14.7155Z" fill="#FDCC00"/>
<path d="M15.4667 24.172C15.4667 25.8346 14.1422 27.1688 12.5249 27.1688C10.9076 27.1688 9.58313 25.8346 9.58313 24.172C9.58313 22.5095 10.9076 21.1753 12.5249 21.1753C14.1422 21.1753 15.4667 22.5095 15.4667 24.172Z" fill="#1E1E1E" stroke="white"/>
<ellipse cx="12.5249" cy="24.172" rx="0.686671" ry="0.69763" fill="#D9D9D9"/>
<path d="M43.795 24.172C43.795 25.8346 42.4704 27.1688 40.8532 27.1688C39.2359 27.1688 37.9114 25.8346 37.9114 24.172C37.9114 22.5095 39.2359 21.1753 40.8532 21.1753C42.4704 21.1753 43.795 22.5095 43.795 24.172Z" fill="#1E1E1E" stroke="white"/>
<ellipse cx="40.8532" cy="24.172" rx="0.686671" ry="0.69763" fill="#D9D9D9"/>
<path d="M54.0645 19.8067C54.3406 19.8067 54.5645 19.5828 54.5645 19.3067C54.5645 19.0305 54.3406 18.8067 54.0645 18.8067V19.8067ZM51.0645 19.8067H52.5645V18.8067H51.0645V19.8067ZM52.5645 19.8067H53.3145V18.8067H52.5645V19.8067ZM53.3145 19.8067H54.0645V18.8067H53.3145V19.8067Z" fill="black"/>
<path d="M54.0645 21.8067C54.3406 21.8067 54.5645 21.5828 54.5645 21.3067C54.5645 21.0305 54.3406 20.8067 54.0645 20.8067V21.8067ZM51.0645 21.8067H54.0645V20.8067H51.0645V21.8067Z" fill="black"/>
<path d="M54.0645 23.8067C54.3406 23.8067 54.5645 23.5828 54.5645 23.3067C54.5645 23.0305 54.3406 22.8067 54.0645 22.8067V23.8067ZM51.0645 23.8067H54.0645V22.8067H51.0645V23.8067Z" fill="black"/>
<rect x="10.3376" y="4.25322" width="5.62901" height="5.71884" rx="2" fill="white"/>
<rect x="17.7201" y="4.25322" width="5.62901" height="5.71884" rx="2" fill="white"/>
<rect x="25.1027" y="4.25322" width="5.62901" height="5.71884" rx="2" fill="white"/>
<rect x="39.1025" y="4.25322" width="3.50121" height="5.71884" rx="1.75061" fill="white"/>
<path d="M4.64355 15.419H33.3041C33.786 15.419 34.059 14.8667 33.7664 14.4839V14.4839C33.4016 14.0067 33.9111 13.3569 34.4615 13.5974L38.6309 15.419L38.6637 15.4443C38.876 15.6082 38.859 15.9338 38.6309 16.0747V16.0747H4.64355V15.419Z" fill="#017A36"/>
<path d="M52.9397 17.9532H15.0042C14.488 17.9532 14.2305 18.5783 14.5969 18.9419V18.9419C15.0305 19.3721 14.5876 20.0933 14.0078 19.9012L8.12945 17.9532L8.10022 17.9361C7.84923 17.7892 7.86608 17.4209 8.12945 17.2975V17.2975H52.9397V17.9532Z" fill="#017A36"/>
<rect x="5.26147" y="13.4993" width="2.90965" height="1.23581" rx="0.617905" transform="rotate(90 5.26147 13.4993)" fill="#CF231F"/>
</g>
<defs>
<filter id="filter0_d_339_625" x="0.0256348" y="0.0568237" width="58.5388" height="35.6119" filterUnits="userSpaceOnUse" color-interpolation-filters="sRGB">
<feFlood flood-opacity="0" result="BackgroundImageFix"/>
<feColorMatrix in="SourceAlpha" type="matrix" values="0 0 0 0 0 0 0 0 0 0 0 0 0 0 0 0 0 0 127 0" result="hardAlpha"/>
<feOffset dy="4"/>
<feGaussianBlur stdDeviation="2"/>
<feComposite in2="hardAlpha" operator="out"/>
<feColorMatrix type="matrix" values="0 0 0 0 0 0 0 0 0 0 0 0 0 0 0 0 0 0 0.25 0"/>
<feBlend mode="normal" in2="BackgroundImageFix" result="effect1_dropShadow_339_625"/>
<feBlend mode="normal" in="SourceGraphic" in2="effect1_dropShadow_339_625" result="shape"/>
</filter>
</defs>
</svg>
