<svg width="93" height="38" viewBox="0 0 93 38" fill="none" xmlns="http://www.w3.org/2000/svg">
<path d="M13.6486 10.2249C13.6486 4.70201 18.1257 0.224854 23.6486 0.224854H59.0298C64.5526 0.224854 69.0298 4.70201 69.0298 10.2249V32.5393H13.6486V10.2249Z" fill="url(#paint0_linear_492_1008)"/>
<path d="M69.0298 19.8675H69.8206C75.3435 19.8675 79.8206 24.3446 79.8206 29.8675V32.5393L69.0298 32.5393L69.0298 19.8675Z" fill="url(#paint1_linear_492_1008)"/>
<path d="M13.6486 20.8102H52.0537C52.6995 20.8102 53.0653 20.0701 52.6731 19.5571V19.5571C52.1844 18.9177 52.8671 18.047 53.6046 18.3693L59.1915 20.8102L59.2355 20.8441C59.52 21.0637 59.4973 21.5 59.1915 21.6889V21.6889H13.6486V20.8102Z" fill="#017A36"/>
<path d="M78.0652 24.2062H27.3944C26.705 24.2062 26.3586 25.0386 26.8443 25.5277V25.5277C27.4206 26.108 26.8222 27.0695 26.0471 26.8089L18.3076 24.2062L18.2682 24.1827C17.9345 23.9845 17.9572 23.4942 18.3076 23.3275V23.3275H77.4026L78.0652 24.2062Z" fill="#017A36"/>
<rect x="13.6486" y="30.1484" width="66.1721" height="2.39087" fill="#EFC103"/>
<path d="M28.3216 32.5394C28.3216 34.8585 26.4732 36.725 24.2097 36.725C21.9461 36.725 20.0977 34.8585 20.0977 32.5394C20.0977 30.2202 21.9461 28.3538 24.2097 28.3538C26.4732 28.3538 28.3216 30.2202 28.3216 32.5394Z" fill="#1E1E1E" stroke="white"/>
<ellipse cx="24.2097" cy="32.5393" rx="0.920139" ry="0.934824" fill="#D9D9D9"/>
<path d="M66.2816 32.5394C66.2816 34.8585 64.4332 36.725 62.1696 36.725C59.9061 36.725 58.0576 34.8585 58.0576 32.5394C58.0576 30.2202 59.9061 28.3538 62.1696 28.3538C64.4332 28.3538 66.2816 30.2202 66.2816 32.5394Z" fill="#1E1E1E" stroke="white"/>
<ellipse cx="62.1697" cy="32.5393" rx="0.920139" ry="0.934824" fill="#D9D9D9"/>
<rect x="21.3788" y="5.94814" width="7.34287" height="7.46325" rx="1.9" fill="#CEFCFF" stroke="#444444" stroke-width="0.2"/>
<rect x="31.2713" y="5.94814" width="7.34287" height="7.46325" rx="1.9" fill="#CEFCFF" stroke="#444444" stroke-width="0.2"/>
<rect x="41.1638" y="5.94814" width="7.34287" height="7.46325" rx="1.9" fill="#CEFCFF" stroke="#444444" stroke-width="0.2"/>
<rect x="59.9239" y="5.94814" width="4.49162" height="7.46325" rx="1.9" fill="#CEFCFF" stroke="#444444" stroke-width="0.2"/>
<rect x="24.1183" y="6.87524" width="0.907756" height="4.30334" rx="0.453878" transform="rotate(-30.0489 24.1183 6.87524)" fill="#E3FDFF"/>
<rect x="41.9792" y="7.77222" width="1.58814" height="5.36273" rx="0.794071" transform="rotate(-30.0489 41.9792 7.77222)" fill="#E3FDFF"/>
<rect x="33.7742" y="6.77441" width="1.63441" height="4.18567" rx="0.817207" transform="rotate(-30.0489 33.7742 6.77441)" fill="#E3FDFF"/>
<rect x="21.8365" y="7.86304" width="1.38755" height="6.43854" rx="0.693773" transform="rotate(-30.0489 21.8365 7.86304)" fill="#E3FDFF"/>
<rect x="44.6843" y="7.46191" width="0.907756" height="4.42768" rx="0.453878" transform="rotate(-30.0489 44.6843 7.46191)" fill="#E3FDFF"/>
<rect x="60.3314" y="8.39648" width="0.907756" height="3.22194" rx="0.453878" transform="rotate(-25.9169 60.3314 8.39648)" fill="#E3FDFF"/>
<rect x="62.2987" y="8.75684" width="0.907756" height="2.31987" rx="0.453878" transform="rotate(-30.0489 62.2987 8.75684)" fill="#E3FDFF"/>
<rect x="32.5808" y="8.11816" width="0.907756" height="5.29657" rx="0.453878" transform="rotate(-30.0489 32.5808 8.11816)" fill="#E3FDFF"/>
<path d="M22.9122 0.236328H42.1107H51.745H56.6273H59.028L60.1744 0.320196L61.1118 0.455067L61.8334 0.616913L63.8699 1.42614L65.0412 2.21255H17.6716L18.2143 1.84447L18.7761 1.48607L19.6091 1.07925L20.3937 0.720851L21.4689 0.44955L22.2147 0.323644L22.9122 0.236328Z" fill="#FFDB44"/>
<path d="M14.0859 16.6565V22.6565V22.6565C12.9814 22.6565 12.0859 21.7611 12.0859 20.6565V18.6565C12.0859 17.5519 12.9814 16.6565 14.0859 16.6565V16.6565Z" fill="#CF231F"/>
<path d="M78.7496 27.4C78.9705 27.4 79.1496 27.2209 79.1496 27C79.1496 26.7791 78.9705 26.6 78.7496 26.6V27.4ZM74.0127 27.4H76.3812V26.6H74.0127V27.4ZM76.3812 27.4H77.5654V26.6H76.3812V27.4ZM77.5654 27.4H78.7496V26.6H77.5654V27.4Z" fill="black"/>
<path d="M78.7496 29.4C78.9705 29.4 79.1496 29.2209 79.1496 29C79.1496 28.7791 78.9705 28.6 78.7496 28.6V29.4ZM74.0127 29.4H78.7496V28.6H74.0127V29.4Z" fill="black"/>
<path d="M78.7496 31.4C78.9705 31.4 79.1496 31.2209 79.1496 31C79.1496 30.7791 78.9705 30.6 78.7496 30.6V31.4ZM74.0127 31.4H78.7496V30.6H74.0127V31.4Z" fill="black"/>
<defs>
<linearGradient id="paint0_linear_492_1008" x1="13.6486" y1="9.31259" x2="79.8206" y2="23.4515" gradientUnits="userSpaceOnUse">
<stop stop-color="#FFD900"/>
<stop offset="1" stop-color="#FDCC00"/>
</linearGradient>
<linearGradient id="paint1_linear_492_1008" x1="13.6486" y1="9.31259" x2="79.8206" y2="23.4515" gradientUnits="userSpaceOnUse">
<stop stop-color="#FFD900"/>
<stop offset="1" stop-color="#FDCC00"/>
</linearGradient>
</defs>
</svg>
