<svg width="97" height="46" viewBox="0 0 97 46" fill="none" xmlns="http://www.w3.org/2000/svg">
<path d="M78.9626 20.1249L82.1987 20.1249C86.8056 20.1249 90.8164 23.2722 91.9119 27.747L93.0794 32.5159H82.1661L78.9626 20.1249Z" fill="#FDCC00"/>
<path d="M91.3442 28.0808C91.6204 28.0808 91.8442 27.857 91.8442 27.5808C91.8442 27.3047 91.6204 27.0808 91.3442 27.0808V28.0808ZM91.3442 30.0808C91.6204 30.0808 91.8442 29.857 91.8442 29.5808C91.8442 29.3047 91.6204 29.0808 91.3442 29.0808V30.0808ZM91.3442 32.0808C91.6204 32.0808 91.8442 31.857 91.8442 31.5808C91.8442 31.3047 91.6204 31.0808 91.3442 31.0808V32.0808ZM86.6073 30.0808H91.3442V29.0808H86.6073V30.0808ZM86.6073 32.0808H91.3442V31.0808H86.6073V32.0808ZM86.6073 28.0808H91.3442V27.0808H86.6073V28.0808Z" fill="black"/>
<path d="M20.1879 13.2355C17.9959 6.75241 22.8174 0.0325623 29.6611 0.0325623H65.2546C69.635 0.0325623 73.5055 2.88346 74.8046 7.0668L82.6098 32.2003H26.6L20.1879 13.2355Z" fill="#FDCC00"/>
<path d="M44.7854 32.3925C44.7854 34.7116 42.937 36.5781 40.6734 36.5781C38.4098 36.5781 36.5614 34.7116 36.5614 32.3925C36.5614 30.0733 38.4098 28.2069 40.6734 28.2069C42.937 28.2069 44.7854 30.0733 44.7854 32.3925Z" fill="#1E1E1E" stroke="white"/>
<ellipse cx="40.6734" cy="32.3925" rx="0.920139" ry="0.934824" fill="#D9D9D9"/>
<path d="M81.7454 32.3925C81.7454 34.7116 79.8969 36.5781 77.6334 36.5781C75.3698 36.5781 73.5214 34.7116 73.5214 32.3925C73.5214 30.0733 75.3698 28.2069 77.6334 28.2069C79.8969 28.2069 81.7454 30.0733 81.7454 32.3925Z" fill="#1E1E1E" stroke="white"/>
<ellipse cx="77.6334" cy="32.3925" rx="0.920139" ry="0.934824" fill="#D9D9D9"/>
<rect x="34.824" y="6.95488" width="7.62849" height="7.62849" rx="2" transform="rotate(-11.9471 34.824 6.95488)" fill="#F1F1F1"/>
<rect x="44.5848" y="7.05042" width="7.62849" height="7.62849" rx="2" transform="rotate(-13.1493 44.5848 7.05042)" fill="#F1F1F1"/>
<rect x="55.4871" y="6.73505" width="7.62849" height="7.62849" rx="2" transform="rotate(-9.11446 55.4871 6.73505)" fill="#F1F1F1"/>
<rect x="67.1316" y="6.66048" width="4.74487" height="7.62849" rx="2" transform="rotate(-12.0211 67.1316 6.66048)" fill="#F1F1F1"/>
<path d="M24.1317 20.9769H67.5318C68.1959 20.9769 68.5525 20.1963 68.1177 19.6943C67.5892 19.0841 68.2293 18.1732 68.9825 18.4637L75.5005 20.9769L75.5424 21.0055C75.8491 21.2145 75.8264 21.6739 75.5005 21.8516H24.1317V20.9769Z" fill="#017A36"/>
<path d="M89.3408 24.3574H42.675C41.9992 24.3574 41.6483 25.1632 42.1086 25.658C42.6609 26.2516 42.044 27.187 41.2809 26.913L34.1615 24.3574L34.1209 24.3317C33.8008 24.1287 33.8235 23.6543 34.1615 23.4827H89.3408V24.3574Z" fill="#017A36"/>
<rect x="25.1071" y="18.1843" width="3.88125" height="1.67478" rx="0.83739" transform="rotate(90 25.1071 18.1843)" fill="#CF231F"/>
<path d="M6.71436 10.8238H8.14385L35.0391 10.4654V11.6907L7.34708 11.2979L6.71436 10.8238Z" fill="#FDCC00"/>
<path d="M6.67834 13.2827H7.71572L27.2334 13.1056V13.7112L7.13751 13.517L6.67834 13.2827Z" fill="#514D4D"/>
<path d="M6.47998 7.30992H7.51735L27.0351 7.13281V7.73842L6.93915 7.54427L6.47998 7.30992Z" fill="#514D4D"/>
<path d="M7.24536 15.9634H42.4893V16.569L14.9709 15.9634H7.24536Z" fill="#FDCC00"/>
<path d="M13.5014 24.1746H41.1258V24.7802L8.55054 24.1746L13.5014 24.1746Z" fill="#017A36"/>
<path d="M6.15125 19.6047L23.4323 19.296V19.9016H0.0114746L6.15125 19.6047Z" fill="#CF231F"/>
<g filter="url(#filter0_d_133_646)">
<circle cx="20.8407" cy="29.1811" r="5.11684" fill="#C7C4C4"/>
</g>
<g filter="url(#filter1_d_133_646)">
<circle cx="24.3975" cy="30.4271" r="5.11684" fill="#E6E6E6"/>
</g>
<g filter="url(#filter2_d_133_646)">
<circle cx="20.8407" cy="32.2003" r="5.11684" fill="#D9D9D9"/>
</g>
<defs>
<filter id="filter0_d_133_646" x="11.7239" y="24.0643" width="18.2336" height="18.2337" filterUnits="userSpaceOnUse" color-interpolation-filters="sRGB">
<feFlood flood-opacity="0" result="BackgroundImageFix"/>
<feColorMatrix in="SourceAlpha" type="matrix" values="0 0 0 0 0 0 0 0 0 0 0 0 0 0 0 0 0 0 127 0" result="hardAlpha"/>
<feOffset dy="4"/>
<feGaussianBlur stdDeviation="2"/>
<feComposite in2="hardAlpha" operator="out"/>
<feColorMatrix type="matrix" values="0 0 0 0 0 0 0 0 0 0 0 0 0 0 0 0 0 0 0.25 0"/>
<feBlend mode="normal" in2="BackgroundImageFix" result="effect1_dropShadow_133_646"/>
<feBlend mode="normal" in="SourceGraphic" in2="effect1_dropShadow_133_646" result="shape"/>
</filter>
<filter id="filter1_d_133_646" x="15.2806" y="25.3103" width="18.2336" height="18.2337" filterUnits="userSpaceOnUse" color-interpolation-filters="sRGB">
<feFlood flood-opacity="0" result="BackgroundImageFix"/>
<feColorMatrix in="SourceAlpha" type="matrix" values="0 0 0 0 0 0 0 0 0 0 0 0 0 0 0 0 0 0 127 0" result="hardAlpha"/>
<feOffset dy="4"/>
<feGaussianBlur stdDeviation="2"/>
<feComposite in2="hardAlpha" operator="out"/>
<feColorMatrix type="matrix" values="0 0 0 0 0 0 0 0 0 0 0 0 0 0 0 0 0 0 0.25 0"/>
<feBlend mode="normal" in2="BackgroundImageFix" result="effect1_dropShadow_133_646"/>
<feBlend mode="normal" in="SourceGraphic" in2="effect1_dropShadow_133_646" result="shape"/>
</filter>
<filter id="filter2_d_133_646" x="11.7239" y="27.0835" width="18.2336" height="18.2337" filterUnits="userSpaceOnUse" color-interpolation-filters="sRGB">
<feFlood flood-opacity="0" result="BackgroundImageFix"/>
<feColorMatrix in="SourceAlpha" type="matrix" values="0 0 0 0 0 0 0 0 0 0 0 0 0 0 0 0 0 0 127 0" result="hardAlpha"/>
<feOffset dy="4"/>
<feGaussianBlur stdDeviation="2"/>
<feComposite in2="hardAlpha" operator="out"/>
<feColorMatrix type="matrix" values="0 0 0 0 0 0 0 0 0 0 0 0 0 0 0 0 0 0 0.25 0"/>
<feBlend mode="normal" in2="BackgroundImageFix" result="effect1_dropShadow_133_646"/>
<feBlend mode="normal" in="SourceGraphic" in2="effect1_dropShadow_133_646" result="shape"/>
</filter>
</defs>
</svg>
