<svg width="19" height="26" viewBox="0 0 19 26" fill="none" xmlns="http://www.w3.org/2000/svg">
<mask id="path-1-outside-1_494_1041" maskUnits="userSpaceOnUse" x="-0.0514465" y="-0.385263" width="19.07" height="27.0492" fill="black">
<rect fill="white" x="-0.0514465" y="-0.385263" width="19.07" height="27.0492"/>
<path d="M6.13128 17.5231L6.13007 17.0572C6.12673 15.7693 6.23013 14.7425 6.44026 13.9768C6.65797 13.2111 6.97456 12.5966 7.39003 12.1334C7.80547 11.6626 8.31194 11.2333 8.90942 10.8454C9.3859 10.5411 9.80935 10.2332 10.1798 9.92162C10.5577 9.60245 10.8561 9.26077 11.0748 8.89656C11.2936 8.53236 11.4024 8.1192 11.4012 7.65708C11.4 7.21011 11.2929 6.81645 11.0799 6.47609C10.8669 6.13573 10.5746 5.87512 10.2029 5.69427C9.83875 5.50582 9.4332 5.41218 8.98623 5.41334C8.53926 5.4145 8.11908 5.51786 7.72567 5.72343C7.33984 5.92897 7.02241 6.22147 6.7734 6.6009C6.53194 6.97274 6.40811 7.42382 6.40191 7.95414L1.17465 7.96771C1.19325 6.37674 1.55729 5.07276 2.26678 4.05577C2.98384 3.03875 3.93264 2.28629 5.1132 1.79837C6.29374 1.30288 7.59612 1.05329 9.02036 1.0496C10.581 1.04555 11.968 1.28437 13.1813 1.76607C14.4023 2.24775 15.3625 2.96117 16.0619 3.90633C16.7613 4.85149 17.1128 6.00967 17.1164 7.38088C17.1187 8.28239 16.9693 9.07824 16.668 9.76842C16.3668 10.4586 15.9441 11.0695 15.4 11.6013C14.8635 12.1254 14.2322 12.6043 13.506 13.038C12.9387 13.3728 12.4661 13.7225 12.0883 14.0871C11.718 14.4517 11.4388 14.8691 11.2506 15.3393C11.0624 15.8019 10.9692 16.3703 10.971 17.0446L10.9722 17.5105L6.13128 17.5231ZM8.66198 24.9711C7.8438 24.9732 7.1423 24.6871 6.55748 24.1129C5.98023 23.5386 5.69433 22.8424 5.69978 22.0242C5.69012 21.2212 5.97243 20.5348 6.54671 19.9652C7.12855 19.3879 7.82856 19.0982 8.64674 19.0961C9.42704 19.0941 10.1134 19.3802 10.7058 19.9544C11.2982 20.521 11.5992 21.2059 11.6089 22.0089C11.6027 22.5543 11.46 23.0509 11.1809 23.4986C10.9093 23.9463 10.5504 24.3033 10.1041 24.5696C9.66542 24.8359 9.18471 24.9697 8.66198 24.9711Z"/>
</mask>
<g filter="url(#filter0_i_494_1041)">
<path d="M6.13128 17.5231L6.13007 17.0572C6.12673 15.7693 6.23013 14.7425 6.44026 13.9768C6.65797 13.2111 6.97456 12.5966 7.39003 12.1334C7.80547 11.6626 8.31194 11.2333 8.90942 10.8454C9.3859 10.5411 9.80935 10.2332 10.1798 9.92162C10.5577 9.60245 10.8561 9.26077 11.0748 8.89656C11.2936 8.53236 11.4024 8.1192 11.4012 7.65708C11.4 7.21011 11.2929 6.81645 11.0799 6.47609C10.8669 6.13573 10.5746 5.87512 10.2029 5.69427C9.83875 5.50582 9.4332 5.41218 8.98623 5.41334C8.53926 5.4145 8.11908 5.51786 7.72567 5.72343C7.33984 5.92897 7.02241 6.22147 6.7734 6.6009C6.53194 6.97274 6.40811 7.42382 6.40191 7.95414L1.17465 7.96771C1.19325 6.37674 1.55729 5.07276 2.26678 4.05577C2.98384 3.03875 3.93264 2.28629 5.1132 1.79837C6.29374 1.30288 7.59612 1.05329 9.02036 1.0496C10.581 1.04555 11.968 1.28437 13.1813 1.76607C14.4023 2.24775 15.3625 2.96117 16.0619 3.90633C16.7613 4.85149 17.1128 6.00967 17.1164 7.38088C17.1187 8.28239 16.9693 9.07824 16.668 9.76842C16.3668 10.4586 15.9441 11.0695 15.4 11.6013C14.8635 12.1254 14.2322 12.6043 13.506 13.038C12.9387 13.3728 12.4661 13.7225 12.0883 14.0871C11.718 14.4517 11.4388 14.8691 11.2506 15.3393C11.0624 15.8019 10.9692 16.3703 10.971 17.0446L10.9722 17.5105L6.13128 17.5231ZM8.66198 24.9711C7.8438 24.9732 7.1423 24.6871 6.55748 24.1129C5.98023 23.5386 5.69433 22.8424 5.69978 22.0242C5.69012 21.2212 5.97243 20.5348 6.54671 19.9652C7.12855 19.3879 7.82856 19.0982 8.64674 19.0961C9.42704 19.0941 10.1134 19.3802 10.7058 19.9544C11.2982 20.521 11.5992 21.2059 11.6089 22.0089C11.6027 22.5543 11.46 23.0509 11.1809 23.4986C10.9093 23.9463 10.5504 24.3033 10.1041 24.5696C9.66542 24.8359 9.18471 24.9697 8.66198 24.9711Z" fill="url(#paint0_linear_494_1041)" fill-opacity="0.5"/>
</g>
<path d="M6.13128 17.5231L5.13129 17.5257L5.13388 18.5257L6.13388 18.5231L6.13128 17.5231ZM6.44026 13.9768L5.47835 13.7033L5.47592 13.7121L6.44026 13.9768ZM7.39003 12.1334L8.13448 12.8011L8.13982 12.7951L7.39003 12.1334ZM8.90942 10.8454L8.37121 10.0025L8.36487 10.0066L8.90942 10.8454ZM10.1798 9.92162L10.8235 10.6869L10.8249 10.6857L10.1798 9.92162ZM11.0748 8.89656L10.2176 8.38167L10.2176 8.38167L11.0748 8.89656ZM10.2029 5.69427L9.74324 6.58238L9.75422 6.58806L9.76534 6.59347L10.2029 5.69427ZM7.72567 5.72343L7.26254 4.8371L7.25549 4.84086L7.72567 5.72343ZM6.7734 6.6009L5.93735 6.05222L5.93471 6.05629L6.7734 6.6009ZM6.40191 7.95414L6.4045 8.95414L7.39032 8.95158L7.40184 7.96583L6.40191 7.95414ZM1.17465 7.96771L0.17472 7.95602L0.162862 8.97034L1.17725 8.9677L1.17465 7.96771ZM2.26678 4.05577L1.44948 3.47952L1.44663 3.48361L2.26678 4.05577ZM5.1132 1.79837L5.49516 2.72257L5.50021 2.72045L5.1132 1.79837ZM13.1813 1.76607L12.8123 2.69551L12.8143 2.6963L13.1813 1.76607ZM16.0619 3.90633L16.8657 3.31149L16.8657 3.31148L16.0619 3.90633ZM15.4 11.6013L16.0988 12.3166L16.099 12.3164L15.4 11.6013ZM13.506 13.038L14.0143 13.8992L14.0188 13.8965L13.506 13.038ZM12.0883 14.0871L11.3939 13.3675L11.3867 13.3746L12.0883 14.0871ZM11.2506 15.3393L12.1769 15.7161L12.179 15.7109L11.2506 15.3393ZM10.9722 17.5105L10.9748 18.5105L11.9748 18.5079L11.9722 17.5079L10.9722 17.5105ZM6.55748 24.1129L5.85219 24.8218L5.85686 24.8264L6.55748 24.1129ZM5.69978 22.0242L6.69976 22.0309L6.69982 22.0215L6.69971 22.0122L5.69978 22.0242ZM6.54671 19.9652L7.25097 20.6751L7.25103 20.6751L6.54671 19.9652ZM10.7058 19.9544L10.0098 20.6724L10.0146 20.677L10.7058 19.9544ZM11.6089 22.0089L12.6088 22.0202L12.6089 22.0085L12.6088 21.9968L11.6089 22.0089ZM11.1809 23.4986L10.3323 22.9695L10.3259 22.98L11.1809 23.4986ZM10.1041 24.5696L9.59168 23.7108L9.58524 23.7147L10.1041 24.5696ZM7.13128 17.5205L7.13007 17.0546L5.13008 17.0597L5.13129 17.5257L7.13128 17.5205ZM7.13007 17.0546C7.12684 15.8084 7.22849 14.8832 7.40461 14.2414L5.47592 13.7121C5.23177 14.6018 5.12663 15.7301 5.13008 17.0597L7.13007 17.0546ZM7.40214 14.2503C7.58952 13.5912 7.84477 13.1241 8.13445 12.8011L6.6456 11.4657C6.10435 12.0691 5.72643 12.8309 5.47839 13.7033L7.40214 14.2503ZM8.13982 12.7951C8.48777 12.4008 8.92258 12.0291 9.45396 11.6841L8.36487 10.0066C7.7013 10.4375 7.12318 10.9245 6.64023 11.4717L8.13982 12.7951ZM9.44761 11.6882C9.95498 11.3642 10.4146 11.0308 10.8235 10.6869L9.53604 9.15635C9.20407 9.43559 8.81683 9.718 8.37122 10.0026L9.44761 11.6882ZM10.8249 10.6857C11.2733 10.307 11.6484 9.88383 11.9321 9.41146L10.2176 8.38167C10.0638 8.63771 9.84214 8.89786 9.53458 9.15758L10.8249 10.6857ZM11.9321 9.41146C12.2529 8.87739 12.4028 8.28234 12.4012 7.65448L10.4012 7.65967C10.4019 7.95605 10.3343 8.18733 10.2176 8.38167L11.9321 9.41146ZM12.4012 7.65448C12.3996 7.04256 12.2506 6.46175 11.9276 5.94558L10.2322 7.00659C10.3352 7.17114 10.4004 7.37765 10.4012 7.65967L12.4012 7.65448ZM11.9276 5.94558C11.6121 5.44145 11.1754 5.0554 10.6404 4.79507L9.76534 6.59347C9.97368 6.69485 10.1217 6.83001 10.2322 7.00659L11.9276 5.94558ZM10.6625 4.80616C10.1429 4.53727 9.57663 4.4118 8.98364 4.41334L8.98883 6.41333C9.28977 6.41255 9.53455 6.47437 9.74324 6.58238L10.6625 4.80616ZM8.98364 4.41334C8.37743 4.41491 7.79915 4.55674 7.26255 4.83713L8.18878 6.60972C8.439 6.47898 8.7011 6.41408 8.98883 6.41333L8.98364 4.41334ZM7.25549 4.84086C6.71588 5.12833 6.27475 5.53813 5.93736 6.05222L7.60943 7.14958C7.77007 6.9048 7.9638 6.72962 8.19585 6.606L7.25549 4.84086ZM5.93471 6.05629C5.57144 6.61572 5.40995 7.26035 5.40198 7.94245L7.40184 7.96583C7.40626 7.58729 7.49244 7.32977 7.61208 7.14551L5.93471 6.05629ZM6.39931 6.95415L1.17206 6.96771L1.17725 8.9677L6.4045 8.95414L6.39931 6.95415ZM2.17458 7.9794C2.1915 6.53253 2.5208 5.43941 3.08692 4.62792L1.44663 3.48361C0.593779 4.70612 0.195003 6.22095 0.17472 7.95602L2.17458 7.9794ZM3.08406 4.632C3.68889 3.77416 4.48484 3.14011 5.49516 2.72255L4.73124 0.874193C3.38045 1.43247 2.27878 2.30334 1.44949 3.47953L3.08406 4.632ZM5.50021 2.72045C6.54602 2.28151 7.71589 2.05298 9.02296 2.04959L9.01777 0.049599C7.47636 0.053599 6.04146 0.324261 4.72619 0.876298L5.50021 2.72045ZM9.02296 2.04959C10.4806 2.04581 11.7379 2.26896 12.8123 2.69551L13.5503 0.836635C12.198 0.299788 10.6813 0.0452822 9.01777 0.049599L9.02296 2.04959ZM12.8143 2.6963C13.882 3.11751 14.6826 3.72356 15.2581 4.50118L16.8657 3.31148C16.0423 2.19879 14.9225 1.378 13.5483 0.835846L12.8143 2.6963ZM15.2581 4.50118C15.8104 5.24757 16.1133 6.18886 16.1164 7.38348L18.1164 7.37829C18.1123 5.83049 17.7122 4.45541 16.8657 3.31149L15.2581 4.50118ZM16.1164 7.38348C16.1184 8.17328 15.9875 8.82767 15.7515 9.36839L17.5845 10.1684C17.951 9.32881 18.119 8.39151 18.1164 7.37829L16.1164 7.38348ZM15.7515 9.36839C15.5023 9.93925 15.154 10.4435 14.7011 10.8861L16.099 12.3164C16.7342 11.6956 17.2312 10.9779 17.5845 10.1684L15.7515 9.36839ZM14.7012 10.8859C14.2275 11.3487 13.6604 11.781 12.9933 12.1795L14.0188 13.8965C14.8039 13.4276 15.4995 12.902 16.0988 12.3166L14.7012 10.8859ZM12.9978 12.1768C12.3793 12.5418 11.8402 12.9369 11.3939 13.3675L12.7827 14.8067C13.0921 14.5081 13.4981 14.2038 14.0143 13.8992L12.9978 12.1768ZM11.3867 13.3746C10.9207 13.8334 10.563 14.3661 10.3222 14.9678L12.179 15.7109C12.3146 15.3722 12.5153 15.0701 12.7899 14.7997L11.3867 13.3746ZM10.3243 14.9625C10.0732 15.5797 9.96899 16.2857 9.97097 17.0472L11.971 17.042C11.9694 16.455 12.0516 16.0241 12.1769 15.7161L10.3243 14.9625ZM9.97097 17.0472L9.97218 17.5131L11.9722 17.5079L11.971 17.042L9.97097 17.0472ZM10.9696 16.5105L6.12869 16.5231L6.13388 18.5231L10.9748 18.5105L10.9696 16.5105ZM8.65939 23.9711C8.10468 23.9725 7.65567 23.7897 7.2581 23.3994L5.85686 24.8264C6.62894 25.5845 7.58293 25.9739 8.66458 25.9711L8.65939 23.9711ZM7.26275 23.4039C6.87684 23.02 6.69608 22.5821 6.69976 22.0309L4.6998 22.0175C4.69257 23.1027 5.08361 24.0572 5.85221 24.8218L7.26275 23.4039ZM6.69971 22.0122C6.69333 21.4821 6.86735 21.0557 7.25097 20.6751L5.84246 19.2552C5.07752 20.014 4.68691 20.9602 4.69985 22.0362L6.69971 22.0122ZM7.25103 20.6751C7.64657 20.2826 8.09462 20.0975 8.64933 20.0961L8.64414 18.0961C7.56249 18.0989 6.61053 18.4932 5.8424 19.2553L7.25103 20.6751ZM8.64933 20.0961C9.15284 20.0948 9.59272 20.2681 10.0098 20.6724L11.4018 19.2363C10.6341 18.4922 9.70124 18.0933 8.64414 18.0961L8.64933 20.0961ZM10.0146 20.677C10.4173 21.0622 10.6026 21.4928 10.6089 22.0209L12.6088 21.9968C12.5958 20.9189 12.1791 19.9798 11.397 19.2317L10.0146 20.677ZM10.6089 21.9976C10.6047 22.3664 10.5111 22.6827 10.3323 22.9695L12.0295 24.0277C12.4089 23.4191 12.6006 22.7423 12.6088 22.0202L10.6089 21.9976ZM10.3259 22.98C10.1384 23.2891 9.89664 23.5289 9.5917 23.7109L10.6166 25.4283C11.2042 25.0777 11.6803 24.6035 12.0359 24.0173L10.3259 22.98ZM9.58524 23.7147C9.30522 23.8847 9.00357 23.9702 8.65939 23.9711L8.66458 25.9711C9.36585 25.9692 10.0256 25.787 10.623 25.4244L9.58524 23.7147Z" fill="#009641" fill-opacity="0.42" mask="url(#path-1-outside-1_494_1041)"/>
<defs>
<filter id="filter0_i_494_1041" x="0.162842" y="0.0495605" width="17.9535" height="25.9216" filterUnits="userSpaceOnUse" color-interpolation-filters="sRGB">
<feFlood flood-opacity="0" result="BackgroundImageFix"/>
<feBlend mode="normal" in="SourceGraphic" in2="BackgroundImageFix" result="shape"/>
<feColorMatrix in="SourceAlpha" type="matrix" values="0 0 0 0 0 0 0 0 0 0 0 0 0 0 0 0 0 0 127 0" result="hardAlpha"/>
<feOffset dx="1" dy="1"/>
<feComposite in2="hardAlpha" operator="arithmetic" k2="-1" k3="1"/>
<feColorMatrix type="matrix" values="0 0 0 0 0 0 0 0 0 0.772549 0 0 0 0 0.333333 0 0 0 1 0"/>
<feBlend mode="normal" in2="shape" result="effect1_innerShadow_494_1041"/>
</filter>
<linearGradient id="paint0_linear_494_1041" x1="-0.061555" y1="-6.68361" x2="19.9474" y2="31.2449" gradientUnits="userSpaceOnUse">
<stop stop-color="#008C3D"/>
<stop offset="1" stop-color="#00C856"/>
</linearGradient>
</defs>
</svg>
