<svg width="19" height="26" viewBox="0 0 19 26" fill="none" xmlns="http://www.w3.org/2000/svg">
<mask id="path-1-outside-1_499_1045" maskUnits="userSpaceOnUse" x="0.774359" y="-0.318703" width="18.07" height="27.0466" fill="black">
<rect fill="white" x="0.774359" y="-0.318703" width="18.07" height="27.0466"/>
<path d="M6.91202 17.7349L6.91102 17.3485C6.91515 16.0227 7.02983 14.9656 7.25506 14.1771C7.48786 13.3887 7.82712 12.7514 8.27283 12.2654C8.71854 11.7794 9.25528 11.3386 9.88304 10.943C10.3519 10.6388 10.7716 10.3233 11.142 9.99659C11.5123 9.66987 11.8068 9.30926 12.0255 8.91475C12.2442 8.51267 12.3529 8.06541 12.3516 7.57299C12.3502 7.05026 12.224 6.59226 11.973 6.19897C11.722 5.80568 11.3841 5.50352 10.9593 5.2925C10.5421 5.08146 10.0797 4.9766 9.5721 4.97792C9.07968 4.9792 8.61406 5.09026 8.17524 5.31109C7.73639 5.52435 7.37737 5.84347 7.09817 6.26844C6.81895 6.68583 6.66878 7.20516 6.64767 7.82643L2.01132 7.83846C2.04527 6.32322 2.40566 5.07228 3.09249 4.08564C3.77931 3.09143 4.69027 2.35043 5.82537 1.86263C6.96045 1.36726 8.2136 1.1178 9.5848 1.11424C11.0924 1.11033 12.4264 1.35687 13.5867 1.85386C14.7471 2.34327 15.658 3.05682 16.3196 3.9945C16.9811 4.93218 17.3136 6.0639 17.317 7.38965C17.3193 8.27601 17.1736 9.06427 16.88 9.75443C16.5939 10.437 16.1901 11.0441 15.6688 11.5758C15.1474 12.0998 14.5312 12.5749 13.8202 13.001C13.2227 13.3586 12.7312 13.7311 12.3458 14.1185C11.968 14.5058 11.6851 14.9535 11.497 15.4616C11.3165 15.9696 11.2235 16.5949 11.2178 17.3373L11.2188 17.7237L6.91202 17.7349ZM9.18088 25.0017C8.42331 25.0037 7.7749 24.7402 7.23564 24.2113C6.70395 23.6748 6.44091 23.0316 6.44654 22.2815C6.43704 21.5391 6.69675 20.9021 7.22568 20.3704C7.76218 19.8387 8.40921 19.5719 9.16679 19.5699C9.88648 19.5681 10.5197 19.8316 11.0666 20.3605C11.6134 20.8893 11.8916 21.525 11.9011 22.2674C11.8948 22.7674 11.7634 23.2261 11.5069 23.6434C11.258 24.0532 10.9293 24.3836 10.5208 24.6346C10.1124 24.8781 9.66573 25.0005 9.18088 25.0017Z"/>
</mask>
<g filter="url(#filter0_i_499_1045)">
<path d="M6.91202 17.7349L6.91102 17.3485C6.91515 16.0227 7.02983 14.9656 7.25506 14.1771C7.48786 13.3887 7.82712 12.7514 8.27283 12.2654C8.71854 11.7794 9.25528 11.3386 9.88304 10.943C10.3519 10.6388 10.7716 10.3233 11.142 9.99659C11.5123 9.66987 11.8068 9.30926 12.0255 8.91475C12.2442 8.51267 12.3529 8.06541 12.3516 7.57299C12.3502 7.05026 12.224 6.59226 11.973 6.19897C11.722 5.80568 11.3841 5.50352 10.9593 5.2925C10.5421 5.08146 10.0797 4.9766 9.5721 4.97792C9.07968 4.9792 8.61406 5.09026 8.17524 5.31109C7.73639 5.52435 7.37737 5.84347 7.09817 6.26844C6.81895 6.68583 6.66878 7.20516 6.64767 7.82643L2.01132 7.83846C2.04527 6.32322 2.40566 5.07228 3.09249 4.08564C3.77931 3.09143 4.69027 2.35043 5.82537 1.86263C6.96045 1.36726 8.2136 1.1178 9.5848 1.11424C11.0924 1.11033 12.4264 1.35687 13.5867 1.85386C14.7471 2.34327 15.658 3.05682 16.3196 3.9945C16.9811 4.93218 17.3136 6.0639 17.317 7.38965C17.3193 8.27601 17.1736 9.06427 16.88 9.75443C16.5939 10.437 16.1901 11.0441 15.6688 11.5758C15.1474 12.0998 14.5312 12.5749 13.8202 13.001C13.2227 13.3586 12.7312 13.7311 12.3458 14.1185C11.968 14.5058 11.6851 14.9535 11.497 15.4616C11.3165 15.9696 11.2235 16.5949 11.2178 17.3373L11.2188 17.7237L6.91202 17.7349ZM9.18088 25.0017C8.42331 25.0037 7.7749 24.7402 7.23564 24.2113C6.70395 23.6748 6.44091 23.0316 6.44654 22.2815C6.43704 21.5391 6.69675 20.9021 7.22568 20.3704C7.76218 19.8387 8.40921 19.5719 9.16679 19.5699C9.88648 19.5681 10.5197 19.8316 11.0666 20.3605C11.6134 20.8893 11.8916 21.525 11.9011 22.2674C11.8948 22.7674 11.7634 23.2261 11.5069 23.6434C11.258 24.0532 10.9293 24.3836 10.5208 24.6346C10.1124 24.8781 9.66573 25.0005 9.18088 25.0017Z" fill="url(#paint0_linear_499_1045)"/>
</g>
<path d="M6.91202 17.7349L5.91202 17.7375L5.91462 18.7375L6.91461 18.7349L6.91202 17.7349ZM6.91102 17.3485L5.911 17.3454L5.91102 17.3511L6.91102 17.3485ZM7.25506 14.1771L6.29595 13.894L6.29352 13.9025L7.25506 14.1771ZM9.88304 10.943L10.4162 11.7892L10.4273 11.7819L9.88304 10.943ZM11.142 9.99659L10.4804 9.24668L10.4804 9.24668L11.142 9.99659ZM12.0255 8.91475L12.9002 9.39957L12.904 9.39248L12.0255 8.91475ZM11.973 6.19897L11.1301 6.73698L11.1301 6.73698L11.973 6.19897ZM10.9593 5.2925L10.5079 6.18487L10.5144 6.18809L10.9593 5.2925ZM8.17524 5.31109L8.61236 6.2106L8.62477 6.20436L8.17524 5.31109ZM7.09817 6.26844L7.92937 6.82448L7.93393 6.81753L7.09817 6.26844ZM6.64767 7.82643L6.65026 8.82643L7.61434 8.82392L7.64709 7.8604L6.64767 7.82643ZM2.01132 7.83846L1.01157 7.81606L0.988605 8.84112L2.01391 8.83846L2.01132 7.83846ZM3.09249 4.08564L3.91322 4.65698L3.91526 4.65402L3.09249 4.08564ZM5.82537 1.86263L6.2202 2.7814L6.22536 2.77915L5.82537 1.86263ZM13.5867 1.85386L13.193 2.77311L13.1981 2.77525L13.5867 1.85386ZM16.3196 3.9945L15.5025 4.57097L15.5025 4.57097L16.3196 3.9945ZM16.88 9.75443L15.9598 9.36289L15.9577 9.36785L16.88 9.75443ZM15.6688 11.5758L16.3777 12.281L16.3828 12.2759L15.6688 11.5758ZM13.8202 13.001L14.3337 13.8591L14.3342 13.8588L13.8202 13.001ZM12.3458 14.1185L11.6369 13.4132L11.6299 13.4203L12.3458 14.1185ZM11.497 15.4616L10.5592 15.1144L10.5547 15.1268L11.497 15.4616ZM11.2178 17.3373L10.2178 17.3297L10.2178 17.3399L11.2178 17.3373ZM11.2188 17.7237L11.2214 18.7237L12.2214 18.7211L12.2188 17.7211L11.2188 17.7237ZM7.23564 24.2113L6.52536 24.9152L6.53036 24.9203L6.53542 24.9252L7.23564 24.2113ZM6.44654 22.2815L7.44651 22.2891L7.44659 22.2789L7.44646 22.2687L6.44654 22.2815ZM7.22568 20.3704L6.52174 19.6601L6.51674 19.6652L7.22568 20.3704ZM11.0666 20.3605L10.3714 21.0793L10.3714 21.0793L11.0666 20.3605ZM11.9011 22.2674L12.901 22.2799L12.9011 22.2673L12.901 22.2546L11.9011 22.2674ZM11.5069 23.6434L10.6549 23.1198L10.6523 23.1242L11.5069 23.6434ZM10.5208 24.6346L11.0329 25.4937L11.0445 25.4865L10.5208 24.6346ZM7.91201 17.7323L7.91101 17.3459L5.91102 17.3511L5.91202 17.7375L7.91201 17.7323ZM7.91101 17.3516C7.91501 16.0686 8.02724 15.1147 8.2166 14.4518L6.29352 13.9025C6.03243 14.8165 5.91529 15.9768 5.91102 17.3454L7.91101 17.3516ZM8.21413 14.4603C8.41418 13.7827 8.68931 13.2908 9.00983 12.9413L7.53583 11.5895C6.96492 12.212 6.56154 12.9946 6.29599 13.894L8.21413 14.4603ZM9.00983 12.9413C9.38848 12.5284 9.85437 12.1431 10.4162 11.7891L9.34993 10.097C8.65618 10.5341 8.0486 11.0304 7.53583 11.5895L9.00983 12.9413ZM10.4273 11.7819C10.9322 11.4544 11.3919 11.1096 11.8035 10.7465L10.4804 9.24668C10.1513 9.53699 9.77171 9.82323 9.33873 10.1042L10.4273 11.7819ZM11.8035 10.7465C12.2514 10.3514 12.6211 9.90299 12.9001 9.39955L11.1509 8.42995C10.9926 8.71552 10.7732 8.98836 10.4804 9.24668L11.8035 10.7465ZM12.904 9.39248C13.2089 8.83192 13.3533 8.21749 13.3516 7.5704L11.3516 7.57559C11.3525 7.91334 11.2795 8.19341 11.147 8.43702L12.904 9.39248ZM13.3516 7.5704C13.3498 6.88145 13.181 6.23295 12.8159 5.66095L11.1301 6.73698C11.267 6.95156 11.3507 7.21908 11.3516 7.57559L13.3516 7.5704ZM12.8159 5.66096C12.4655 5.11188 11.9888 4.68735 11.4042 4.39692L10.5144 6.18809C10.7793 6.3197 10.9785 6.49948 11.1301 6.73698L12.8159 5.66096ZM11.4107 4.40017C10.8409 4.11198 10.221 3.97623 9.56951 3.97792L9.5747 5.97792C9.93836 5.97697 10.2432 6.05095 10.5079 6.18484L11.4107 4.40017ZM9.56951 3.97792C8.92223 3.9796 8.30354 4.12703 7.7257 4.41783L8.62477 6.20436C8.92458 6.05348 9.23714 5.97879 9.5747 5.97792L9.56951 3.97792ZM7.73815 4.41167C7.1303 4.70707 6.63616 5.15046 6.26241 5.71935L7.93393 6.81753C8.11858 6.53648 8.34249 6.34164 8.61232 6.21051L7.73815 4.41167ZM6.267 5.71242C5.86202 6.3178 5.67419 7.02911 5.64824 7.79246L7.64709 7.8604C7.66338 7.38121 7.77588 7.05386 7.92934 6.82446L6.267 5.71242ZM6.64507 6.82643L2.00872 6.83846L2.01391 8.83846L6.65026 8.82643L6.64507 6.82643ZM3.01107 7.86086C3.04176 6.49103 3.36479 5.44478 3.91321 4.65698L2.27178 3.51431C1.44653 4.69977 1.04877 6.1554 1.01157 7.81606L3.01107 7.86086ZM3.91526 4.65402C4.4927 3.81814 5.25375 3.19671 6.2202 2.78139L5.43055 0.943877C4.12678 1.50415 3.06592 2.36473 2.26973 3.51726L3.91526 4.65402ZM6.22536 2.77915C7.22225 2.34409 8.33824 2.11748 9.5874 2.11424L9.58221 0.114242C8.08895 0.118117 6.69865 0.390433 5.42538 0.946112L6.22536 2.77915ZM9.5874 2.11424C10.9847 2.11061 12.1797 2.3391 13.193 2.77309L13.9804 0.93462C12.673 0.374634 11.2 0.110044 9.58221 0.114242L9.5874 2.11424ZM13.1981 2.77525C14.2036 3.19934 14.9591 3.80077 15.5025 4.57097L17.1367 3.41803C16.357 2.31287 15.2906 1.4872 13.9754 0.93246L13.1981 2.77525ZM15.5025 4.57097C16.0278 5.31564 16.314 6.23908 16.317 7.39224L18.317 7.38705C18.3131 5.88872 17.9344 4.54872 17.1367 3.41803L15.5025 4.57097ZM16.317 7.39224C16.319 8.16742 16.1917 8.81787 15.9598 9.3629L17.8001 10.146C18.1556 9.31067 18.3196 8.3846 18.317 7.38705L16.317 7.39224ZM15.9577 9.36785C15.7209 9.93292 15.3881 10.4338 14.9548 10.8756L16.3828 12.2759C16.9922 11.6544 17.4669 10.9411 17.8022 10.141L15.9577 9.36785ZM14.9599 10.8705C14.5035 11.3293 13.9546 11.7547 13.3062 12.1432L14.3342 13.8588C15.1078 13.3952 15.7914 12.8704 16.3777 12.281L14.9599 10.8705ZM13.3067 12.1429C12.6563 12.5321 12.0942 12.9535 11.6369 13.4132L13.0548 14.8238C13.3682 14.5087 13.789 14.1851 14.3337 13.8591L13.3067 12.1429ZM11.6299 13.4203C11.1543 13.9079 10.7958 14.4753 10.5592 15.1144L12.4349 15.8088C12.5744 15.4318 12.7818 15.1037 13.0617 14.8167L11.6299 13.4203ZM10.5547 15.1268C10.3258 15.7713 10.224 16.5147 10.2178 17.3297L12.2178 17.3449C12.2229 16.675 12.3073 16.168 12.4393 15.7964L10.5547 15.1268ZM10.2178 17.3399L10.2188 17.7263L12.2188 17.7211L12.2178 17.3347L10.2178 17.3399ZM11.2162 16.7237L6.90942 16.7349L6.91461 18.7349L11.2214 18.7237L11.2162 16.7237ZM9.17829 24.0017C8.6826 24.003 8.28691 23.8417 7.93587 23.4974L6.53542 24.9252C7.26289 25.6388 8.16402 26.0044 9.18348 26.0017L9.17829 24.0017ZM7.94592 23.5074C7.60016 23.1585 7.4429 22.7707 7.44651 22.2891L5.44657 22.274C5.43893 23.2924 5.80773 24.1911 6.52536 24.9152L7.94592 23.5074ZM7.44646 22.2687C7.44044 21.7981 7.59308 21.419 7.93462 21.0757L6.51674 19.6652C5.80043 20.3852 5.43364 21.2802 5.44662 22.2943L7.44646 22.2687ZM7.9296 21.0807C8.27884 20.7346 8.67369 20.5712 9.16938 20.5699L9.16419 18.5699C8.14473 18.5726 7.24551 18.9429 6.52176 19.6601L7.9296 21.0807ZM9.16938 20.5699C9.61276 20.5688 9.99985 20.7199 10.3714 21.0793L11.7618 19.6417C11.0396 18.9432 10.1602 18.5674 9.16419 18.5699L9.16938 20.5699ZM10.3714 21.0793C10.7319 21.4279 10.8952 21.8116 10.9012 22.2802L12.901 22.2546C12.888 21.2384 12.4949 20.3507 11.7618 19.6417L10.3714 21.0793ZM10.9011 22.2548C10.8971 22.5782 10.8148 22.8597 10.655 23.1198L12.3589 24.167C12.712 23.5925 12.8925 22.9566 12.901 22.2799L10.9011 22.2548ZM10.6523 23.1242C10.4857 23.3983 10.2705 23.6147 9.99718 23.7827L11.0445 25.4865C11.5881 25.1524 12.0302 24.708 12.3615 24.1627L10.6523 23.1242ZM10.0088 23.7757C9.75758 23.9254 9.48744 24.0009 9.17829 24.0017L9.18348 26.0017C9.84402 26 10.4672 25.8308 11.0329 25.4936L10.0088 23.7757Z" fill="#B4B68E" fill-opacity="0.5" mask="url(#path-1-outside-1_499_1045)"/>
<defs>
<filter id="filter0_i_499_1045" x="0.988647" y="0.114258" width="18.3284" height="26.8875" filterUnits="userSpaceOnUse" color-interpolation-filters="sRGB">
<feFlood flood-opacity="0" result="BackgroundImageFix"/>
<feBlend mode="normal" in="SourceGraphic" in2="BackgroundImageFix" result="shape"/>
<feColorMatrix in="SourceAlpha" type="matrix" values="0 0 0 0 0 0 0 0 0 0 0 0 0 0 0 0 0 0 127 0" result="hardAlpha"/>
<feOffset dx="1" dy="1"/>
<feGaussianBlur stdDeviation="1"/>
<feComposite in2="hardAlpha" operator="arithmetic" k2="-1" k3="1"/>
<feColorMatrix type="matrix" values="0 0 0 0 0.0666667 0 0 0 0 0.0666667 0 0 0 0 0.0666667 0 0 0 0.14 0"/>
<feBlend mode="normal" in2="shape" result="effect1_innerShadow_499_1045"/>
</filter>
<linearGradient id="paint0_linear_499_1045" x1="0.764251" y1="-6.61965" x2="20.7732" y2="31.3089" gradientUnits="userSpaceOnUse">
<stop stop-color="#F5FFD3" stop-opacity="0.807843"/>
<stop offset="1" stop-color="#D5E1C4" stop-opacity="0.05"/>
</linearGradient>
</defs>
</svg>
