<svg width="19" height="27" viewBox="0 0 19 27" fill="none" xmlns="http://www.w3.org/2000/svg">
<mask id="path-1-outside-1_504_1047" maskUnits="userSpaceOnUse" x="0.55329" y="0.141746" width="18.07" height="27.0466" fill="black">
<rect fill="white" x="0.55329" y="0.141746" width="18.07" height="27.0466"/>
<path d="M6.69095 18.1953L6.68995 17.809C6.69408 16.4832 6.80876 15.4261 7.03399 14.6376C7.26679 13.8491 7.60605 13.2119 8.05176 12.7259C8.49747 12.2399 9.03421 11.7991 9.66197 11.4035C10.1309 11.0992 10.5505 10.7838 10.9209 10.457C11.2912 10.1303 11.5858 9.76971 11.8044 9.3752C12.0231 8.97312 12.1318 8.52586 12.1305 8.03344C12.1291 7.51071 12.003 7.05271 11.7519 6.65942C11.5009 6.26613 11.163 5.96397 10.7382 5.75295C10.321 5.54191 9.85861 5.43705 9.35103 5.43837C8.85861 5.43965 8.39299 5.55071 7.95417 5.77154C7.51533 5.9848 7.1563 6.30392 6.8771 6.72889C6.59788 7.14628 6.44771 7.66561 6.4266 8.28688L1.79025 8.29891C1.8242 6.78366 2.18459 5.53273 2.87142 4.54609C3.55824 3.55188 4.4692 2.81088 5.6043 2.32308C6.73938 1.82771 7.99253 1.57825 9.36374 1.57469C10.8713 1.57078 12.2053 1.81731 13.3657 2.31431C14.526 2.80372 15.437 3.51727 16.0985 4.45495C16.76 5.39263 17.0925 6.52435 17.096 7.8501C17.0983 8.73646 16.9526 9.52472 16.6589 10.2149C16.3728 10.8974 15.9691 11.5046 15.4477 12.0362C14.9264 12.5603 14.3102 13.0354 13.5991 13.4615C13.0016 13.8191 12.5101 14.1916 12.1248 14.5789C11.747 14.9663 11.464 15.414 11.276 15.922C11.0955 16.4301 11.0024 17.0553 10.9967 17.7978L10.9978 18.1841L6.69095 18.1953ZM8.95981 25.4622C8.20224 25.4641 7.55383 25.2007 7.01457 24.6718C6.48288 24.1353 6.21984 23.492 6.22547 22.742C6.21597 21.9996 6.47568 21.3626 7.00461 20.8309C7.54111 20.2992 8.18814 20.0323 8.94572 20.0304C9.66541 20.0285 10.2987 20.292 10.8455 20.8209C11.3923 21.3498 11.6705 21.9854 11.68 22.7278C11.6737 23.2279 11.5423 23.6865 11.2858 24.1039C11.0369 24.5136 10.7082 24.844 10.2998 25.0951C9.89131 25.3386 9.44466 25.4609 8.95981 25.4622Z"/>
</mask>
<g filter="url(#filter0_i_504_1047)">
<path d="M6.69095 18.1953L6.68995 17.809C6.69408 16.4832 6.80876 15.4261 7.03399 14.6376C7.26679 13.8491 7.60605 13.2119 8.05176 12.7259C8.49747 12.2399 9.03421 11.7991 9.66197 11.4035C10.1309 11.0992 10.5505 10.7838 10.9209 10.457C11.2912 10.1303 11.5858 9.76971 11.8044 9.3752C12.0231 8.97312 12.1318 8.52586 12.1305 8.03344C12.1291 7.51071 12.003 7.05271 11.7519 6.65942C11.5009 6.26613 11.163 5.96397 10.7382 5.75295C10.321 5.54191 9.85861 5.43705 9.35103 5.43837C8.85861 5.43965 8.39299 5.55071 7.95417 5.77154C7.51533 5.9848 7.1563 6.30392 6.8771 6.72889C6.59788 7.14628 6.44771 7.66561 6.4266 8.28688L1.79025 8.29891C1.8242 6.78366 2.18459 5.53273 2.87142 4.54609C3.55824 3.55188 4.4692 2.81088 5.6043 2.32308C6.73938 1.82771 7.99253 1.57825 9.36374 1.57469C10.8713 1.57078 12.2053 1.81731 13.3657 2.31431C14.526 2.80372 15.437 3.51727 16.0985 4.45495C16.76 5.39263 17.0925 6.52435 17.096 7.8501C17.0983 8.73646 16.9526 9.52472 16.6589 10.2149C16.3728 10.8974 15.9691 11.5046 15.4477 12.0362C14.9264 12.5603 14.3102 13.0354 13.5991 13.4615C13.0016 13.8191 12.5101 14.1916 12.1248 14.5789C11.747 14.9663 11.464 15.414 11.276 15.922C11.0955 16.4301 11.0024 17.0553 10.9967 17.7978L10.9978 18.1841L6.69095 18.1953ZM8.95981 25.4622C8.20224 25.4641 7.55383 25.2007 7.01457 24.6718C6.48288 24.1353 6.21984 23.492 6.22547 22.742C6.21597 21.9996 6.47568 21.3626 7.00461 20.8309C7.54111 20.2992 8.18814 20.0323 8.94572 20.0304C9.66541 20.0285 10.2987 20.292 10.8455 20.8209C11.3923 21.3498 11.6705 21.9854 11.68 22.7278C11.6737 23.2279 11.5423 23.6865 11.2858 24.1039C11.0369 24.5136 10.7082 24.844 10.2998 25.0951C9.89131 25.3386 9.44466 25.4609 8.95981 25.4622Z" fill="url(#paint0_linear_504_1047)" fill-opacity="0.6"/>
</g>
<path d="M6.69095 18.1953L5.69095 18.1979L5.69355 19.1979L6.69354 19.1953L6.69095 18.1953ZM6.68995 17.809L5.68993 17.8058L5.68995 17.8116L6.68995 17.809ZM7.03399 14.6376L6.07488 14.3544L6.07245 14.3629L7.03399 14.6376ZM9.66197 11.4035L10.1951 12.2496L10.2063 12.2424L9.66197 11.4035ZM10.9209 10.457L10.2593 9.70713L10.2593 9.70713L10.9209 10.457ZM11.8044 9.3752L12.6791 9.86002L12.6829 9.85293L11.8044 9.3752ZM11.7519 6.65942L10.909 7.19743L10.909 7.19743L11.7519 6.65942ZM10.7382 5.75295L10.2868 6.64531L10.2933 6.64854L10.7382 5.75295ZM7.95417 5.77154L8.39129 6.67105L8.4037 6.66481L7.95417 5.77154ZM6.8771 6.72889L7.7083 7.28493L7.71287 7.27798L6.8771 6.72889ZM6.4266 8.28688L6.42919 9.28688L7.39327 9.28437L7.42602 8.32085L6.4266 8.28688ZM1.79025 8.29891L0.790501 8.27651L0.767536 9.30157L1.79284 9.29891L1.79025 8.29891ZM2.87142 4.54609L3.69215 5.11743L3.69419 5.11447L2.87142 4.54609ZM5.6043 2.32308L5.99913 3.24185L6.00429 3.2396L5.6043 2.32308ZM13.3657 2.31431L12.972 3.23356L12.977 3.2357L13.3657 2.31431ZM16.0985 4.45495L15.2814 5.03142L15.2814 5.03142L16.0985 4.45495ZM16.6589 10.2149L15.7387 9.82334L15.7367 9.8283L16.6589 10.2149ZM15.4477 12.0362L16.1567 12.7415L16.1617 12.7364L15.4477 12.0362ZM13.5991 13.4615L14.1127 14.3195L14.1132 14.3192L13.5991 13.4615ZM12.1248 14.5789L11.4158 13.8736L11.4089 13.8807L12.1248 14.5789ZM11.276 15.922L10.3381 15.5749L10.3337 15.5873L11.276 15.922ZM10.9967 17.7978L9.99673 17.7902L9.99675 17.8004L10.9967 17.7978ZM10.9978 18.1841L11.0003 19.1841L12.0003 19.1815L11.9977 18.1815L10.9978 18.1841ZM7.01457 24.6718L6.30429 25.3757L6.30929 25.3807L6.31435 25.3857L7.01457 24.6718ZM6.22547 22.742L7.22544 22.7495L7.22552 22.7393L7.22539 22.7292L6.22547 22.742ZM7.00461 20.8309L6.30067 20.1206L6.29567 20.1256L7.00461 20.8309ZM10.8455 20.8209L10.1503 21.5397L10.1503 21.5397L10.8455 20.8209ZM11.68 22.7278L12.6799 22.7404L12.6801 22.7277L12.6799 22.715L11.68 22.7278ZM11.2858 24.1039L10.4339 23.5802L10.4312 23.5846L11.2858 24.1039ZM10.2998 25.0951L10.8119 25.9541L10.8234 25.947L10.2998 25.0951ZM7.69094 18.1927L7.68994 17.8064L5.68995 17.8116L5.69095 18.1979L7.69094 18.1927ZM7.68994 17.8121C7.69394 16.5291 7.80617 15.5752 7.99553 14.9123L6.07245 14.3629C5.81136 15.277 5.69422 16.4373 5.68995 17.8058L7.68994 17.8121ZM7.99306 14.9208C8.19311 14.2432 8.46825 13.7512 8.78876 13.4018L7.31476 12.05C6.74385 12.6725 6.34047 13.455 6.07492 14.3544L7.99306 14.9208ZM8.78876 13.4018C9.16741 12.9889 9.6333 12.6035 10.1951 12.2495L9.12886 10.5575C8.43511 10.9946 7.82753 11.4908 7.31476 12.05L8.78876 13.4018ZM10.2063 12.2424C10.7111 11.9148 11.1708 11.5701 11.5824 11.207L10.2593 9.70713C9.93025 9.99744 9.55064 10.2837 9.11766 10.5646L10.2063 12.2424ZM11.5824 11.207C12.0303 10.8118 12.4 10.3634 12.6791 9.86L10.9298 8.8904C10.7715 9.17597 10.5522 9.44881 10.2593 9.70713L11.5824 11.207ZM12.6829 9.85293C12.9878 9.29237 13.1322 8.67793 13.1305 8.03085L11.1305 8.03604C11.1314 8.37379 11.0584 8.65386 10.9259 8.89747L12.6829 9.85293ZM13.1305 8.03085C13.1287 7.3419 12.96 6.6934 12.5949 6.1214L10.909 7.19743C11.046 7.41201 11.1296 7.67952 11.1305 8.03604L13.1305 8.03085ZM12.5949 6.1214C12.2444 5.57233 11.7678 5.1478 11.1831 4.85737L10.2933 6.64854C10.5583 6.78015 10.7574 6.95993 10.909 7.19743L12.5949 6.1214ZM11.1896 4.86062C10.6199 4.57243 9.99993 4.43668 9.34844 4.43837L9.35363 6.43837C9.71729 6.43742 10.0221 6.5114 10.2869 6.64529L11.1896 4.86062ZM9.34844 4.43837C8.70116 4.44005 8.08247 4.58748 7.50463 4.87828L8.4037 6.66481C8.70351 6.51393 9.01607 6.43924 9.35363 6.43837L9.34844 4.43837ZM7.51708 4.87212C6.90923 5.16752 6.4151 5.61091 6.04134 6.1798L7.71287 7.27798C7.89751 6.99693 8.12142 6.80209 8.39125 6.67096L7.51708 4.87212ZM6.04593 6.17286C5.64095 6.77825 5.45312 7.48956 5.42718 8.25291L7.42602 8.32085C7.44231 7.84166 7.55481 7.5143 7.70827 7.28491L6.04593 6.17286ZM6.424 7.28688L1.78765 7.29891L1.79284 9.29891L6.42919 9.28688L6.424 7.28688ZM2.79 8.32131C2.82069 6.95148 3.14372 5.90523 3.69214 5.11743L2.05071 3.97476C1.22546 5.16022 0.827705 6.61585 0.790501 8.27651L2.79 8.32131ZM3.69419 5.11447C4.27163 4.27859 5.03268 3.65716 5.99913 3.24184L5.20948 1.40433C3.90571 1.9646 2.84485 2.82518 2.04866 3.97771L3.69419 5.11447ZM6.00429 3.2396C7.00118 2.80454 8.11718 2.57793 9.36633 2.57468L9.36114 0.574691C7.86788 0.578566 6.47758 0.850882 5.20431 1.40656L6.00429 3.2396ZM9.36633 2.57468C10.7637 2.57106 11.9587 2.79955 12.972 3.23354L13.7594 1.39507C12.4519 0.835083 10.9789 0.570493 9.36114 0.574691L9.36633 2.57468ZM12.977 3.2357C13.9825 3.65979 14.738 4.26122 15.2814 5.03142L16.9156 3.87848C16.1359 2.77332 15.0696 1.94765 13.7543 1.39291L12.977 3.2357ZM15.2814 5.03142C15.8067 5.77609 16.093 6.69953 16.096 7.85269L18.096 7.8475C18.0921 6.34917 17.7133 5.00917 16.9156 3.87848L15.2814 5.03142ZM16.096 7.85269C16.098 8.62787 15.9707 9.27832 15.7387 9.82334L17.5791 10.6064C17.9345 9.77111 18.0985 8.84505 18.096 7.8475L16.096 7.85269ZM15.7367 9.8283C15.4998 10.3934 15.167 10.8942 14.7337 11.3361L16.1617 12.7364C16.7712 12.1149 17.2458 11.4015 17.5812 10.6015L15.7367 9.8283ZM14.7388 11.3309C14.2824 11.7897 13.7335 12.2151 13.0851 12.6037L14.1132 14.3192C14.8868 13.8556 15.5703 13.3309 16.1567 12.7415L14.7388 11.3309ZM13.0856 12.6034C12.4353 12.9926 11.8732 13.4139 11.4158 13.8737L12.8337 15.2842C13.1471 14.9692 13.5679 14.6456 14.1127 14.3195L13.0856 12.6034ZM11.4089 13.8807C10.9332 14.3684 10.5748 14.9357 10.3382 15.5749L12.2138 16.2692C12.3533 15.8922 12.5607 15.5642 12.8407 15.2771L11.4089 13.8807ZM10.3337 15.5873C10.1047 16.2317 10.003 16.9752 9.99678 17.7902L11.9967 17.8054C12.0018 17.1355 12.0862 16.6285 12.2183 16.2568L10.3337 15.5873ZM9.99675 17.8004L9.99776 18.1867L11.9977 18.1815L11.9967 17.7952L9.99675 17.8004ZM10.9952 17.1841L6.68835 17.1953L6.69354 19.1953L11.0003 19.1841L10.9952 17.1841ZM8.95722 24.4622C8.46153 24.4635 8.06584 24.3022 7.7148 23.9579L6.31435 25.3857C7.04182 26.0992 7.94295 26.4648 8.96241 26.4622L8.95722 24.4622ZM7.72485 23.9679C7.37909 23.619 7.22183 23.2312 7.22544 22.7495L5.2255 22.7345C5.21786 23.7529 5.58666 24.6516 6.30429 25.3757L7.72485 23.9679ZM7.22539 22.7292C7.21937 22.2586 7.37201 21.8795 7.71355 21.5361L6.29567 20.1256C5.57936 20.8456 5.21257 21.7406 5.22555 22.7548L7.22539 22.7292ZM7.70853 21.5412C8.05777 21.195 8.45262 21.0317 8.94831 21.0304L8.94312 19.0304C7.92367 19.033 7.02444 19.4033 6.30069 20.1206L7.70853 21.5412ZM8.94831 21.0304C9.39169 21.0292 9.77879 21.1804 10.1503 21.5397L11.5407 20.1021C10.8186 19.4036 9.93913 19.0278 8.94312 19.0304L8.94831 21.0304ZM10.1503 21.5397C10.5108 21.8884 10.6741 22.272 10.6801 22.7406L12.6799 22.715C12.6669 21.6988 12.2739 20.8112 11.5407 20.1021L10.1503 21.5397ZM10.6801 22.7153C10.676 23.0387 10.5938 23.3201 10.4339 23.5803L12.1378 24.6275C12.4909 24.0529 12.6714 23.417 12.6799 22.7404L10.6801 22.7153ZM10.4312 23.5846C10.2646 23.8588 10.0494 24.0752 9.77611 24.2431L10.8234 25.947C11.367 25.6129 11.8092 25.1684 12.1405 24.6231L10.4312 23.5846ZM9.78774 24.2361C9.53651 24.3859 9.26637 24.4614 8.95722 24.4622L8.96241 26.4622C9.62295 26.4605 10.2461 26.2912 10.8118 25.954L9.78774 24.2361Z" fill="#009641" fill-opacity="0.5" mask="url(#path-1-outside-1_504_1047)"/>
<defs>
<filter id="filter0_i_504_1047" x="0.767578" y="0.574707" width="17.3284" height="25.8875" filterUnits="userSpaceOnUse" color-interpolation-filters="sRGB">
<feFlood flood-opacity="0" result="BackgroundImageFix"/>
<feBlend mode="normal" in="SourceGraphic" in2="BackgroundImageFix" result="shape"/>
<feColorMatrix in="SourceAlpha" type="matrix" values="0 0 0 0 0 0 0 0 0 0 0 0 0 0 0 0 0 0 127 0" result="hardAlpha"/>
<feOffset dx="1" dy="1"/>
<feComposite in2="hardAlpha" operator="arithmetic" k2="-1" k3="1"/>
<feColorMatrix type="matrix" values="0 0 0 0 0 0 0 0 0 0.772549 0 0 0 0 0.333333 0 0 0 0.5 0"/>
<feBlend mode="normal" in2="shape" result="effect1_innerShadow_504_1047"/>
</filter>
<linearGradient id="paint0_linear_504_1047" x1="0.543181" y1="-6.1592" x2="20.5521" y2="31.7694" gradientUnits="userSpaceOnUse">
<stop stop-color="#008C3D"/>
<stop offset="1" stop-color="#00C856"/>
</linearGradient>
</defs>
</svg>
