<svg width="95" height="38" viewBox="0 0 95 38" fill="none" xmlns="http://www.w3.org/2000/svg">
<path d="M77.3882 20.3198L80.6243 20.3198C85.2312 20.3198 89.2419 23.4671 90.3374 27.9419L91.5049 32.7108H80.5916L77.3882 20.3198Z" fill="url(#paint0_linear_480_929)"/>
<path d="M21.3624 13.4305C19.1705 6.94738 23.992 0.227539 30.8356 0.227539H66.4291C70.8095 0.227539 74.6801 3.07844 75.9792 7.26178L83.7844 32.3953H27.7746L21.3624 13.4305Z" fill="url(#paint1_linear_480_929)"/>
<path d="M30.5468 0.227539H49.7453H59.3796H64.262H66.6627L67.8091 0.311407L68.7464 0.446278L69.468 0.608124L71.5046 1.41735L72.6759 2.20376H25.3063L25.8489 1.83568L26.4107 1.47728L27.2438 1.07046L28.0284 0.712062L29.1035 0.440761L29.8494 0.314855L30.5468 0.227539Z" fill="#FFDB44"/>
<path d="M30.3693 29.8811H90.9176L91.514 32.3953H30.3693V29.8811Z" fill="#EFC103"/>
<path d="M45.96 32.5875C45.96 34.9066 44.1115 36.7731 41.848 36.7731C39.5844 36.7731 37.736 34.9066 37.736 32.5875C37.736 30.2683 39.5844 28.4019 41.848 28.4019C44.1115 28.4019 45.96 30.2683 45.96 32.5875Z" fill="#1E1E1E" stroke="white"/>
<ellipse cx="41.848" cy="32.5874" rx="0.920139" ry="0.934824" fill="#D9D9D9"/>
<path d="M82.9199 32.5875C82.9199 34.9066 81.0715 36.7731 78.8079 36.7731C76.5444 36.7731 74.6959 34.9066 74.6959 32.5875C74.6959 30.2683 76.5444 28.4019 78.8079 28.4019C81.0715 28.4019 82.9199 30.2683 82.9199 32.5875Z" fill="#1E1E1E" stroke="white"/>
<ellipse cx="78.808" cy="32.5874" rx="0.920139" ry="0.934824" fill="#D9D9D9"/>
<rect x="36.1171" y="7.22679" width="7.42849" height="7.42849" rx="1.9" transform="rotate(-11.9471 36.1171 7.22679)" fill="#CEFCFF" stroke="#444444" stroke-width="0.2"/>
<rect x="37.4229" y="8.03003" width="1.38755" height="6.43854" rx="0.693773" transform="rotate(-30.0489 37.4229 8.03003)" fill="#E3FDFF"/>
<rect x="40.5161" y="7.63037" width="1.95846" height="2.90065" rx="0.979228" transform="rotate(-30.0489 40.5161 7.63037)" fill="#E3FDFF"/>
<rect x="45.8795" y="7.31999" width="7.42849" height="7.42849" rx="1.9" transform="rotate(-13.1493 45.8795 7.31999)" fill="#CEFCFF" stroke="#444444" stroke-width="0.2"/>
<rect x="56.7762" y="7.01283" width="7.42849" height="7.42849" rx="1.9" transform="rotate(-9.11446 56.7762 7.01283)" fill="#CEFCFF" stroke="#444444" stroke-width="0.2"/>
<rect x="68.4248" y="6.93245" width="4.54487" height="7.42849" rx="1.9" transform="rotate(-12.0211 68.4248 6.93245)" fill="#CEFCFF" stroke="#444444" stroke-width="0.2"/>
<path d="M25.3063 21.1718H68.7064C69.3705 21.1718 69.7271 20.3912 69.2923 19.8892V19.8892C68.7638 19.2789 69.4038 18.3681 70.1571 18.6585L76.6751 21.1718L76.7169 21.2003C77.0237 21.4094 77.001 21.8688 76.6751 22.0465V22.0465H25.3063V21.1718Z" fill="#017A36"/>
<path d="M88.7189 24.5523H43.5127C42.8433 24.5523 42.4891 25.3441 42.9353 25.8431V25.8431C43.4744 26.4461 42.8446 27.3679 42.0869 27.0849L35.3063 24.5523L35.265 24.525C34.9522 24.3186 34.9749 23.8526 35.3063 23.6776V23.6776H88.3376L88.7189 24.5523Z" fill="#017A36"/>
<path d="M23.1685 18.1799L24.6068 22.6774V22.6774C23.7258 22.9592 22.7832 22.4734 22.5015 21.5924L22.0834 20.2853C21.8017 19.4043 22.2875 18.4617 23.1685 18.1799V18.1799Z" fill="#CF231F"/>
<path d="M7.88892 11.0187H9.31841L36.2137 10.6604V11.8857L8.52164 11.4929L7.88892 11.0187Z" fill="#FDCC00"/>
<path d="M7.85291 13.4776H8.89028L28.408 13.3005V13.9061L8.31207 13.712L7.85291 13.4776Z" fill="#514D4D"/>
<path d="M7.65454 7.50475H8.69191L28.2096 7.32764V7.93324L8.11371 7.73909L7.65454 7.50475Z" fill="#514D4D"/>
<path d="M8.41992 16.1582H43.6638V16.7638L16.1455 16.1582H8.41992Z" fill="#FDCC00"/>
<path d="M14.676 24.3696H42.3003V24.9752L9.7251 24.3696L14.676 24.3696Z" fill="#017A36"/>
<path d="M6.42176 20.0229L23.7028 19.7141V20.3197H0.281982L6.42176 20.0229Z" fill="#CF231F"/>
<circle cx="22.0153" cy="29.3761" r="5.11684" fill="#C7C4C4"/>
<circle cx="25.572" cy="30.622" r="5.11684" fill="#E6E6E6"/>
<circle cx="22.0153" cy="32.3952" r="5.11684" fill="#D9D9D9"/>
<rect x="48.1885" y="9.13037" width="1.95846" height="2.90065" rx="0.979228" transform="rotate(-30.0489 48.1885 9.13037)" fill="#E3FDFF"/>
<rect x="50.3413" y="8.56152" width="1.95846" height="4.27637" rx="0.979228" transform="rotate(-30.0489 50.3413 8.56152)" fill="#E3FDFF"/>
<rect x="57.8079" y="8.78076" width="1.11222" height="5.70742" rx="0.556109" transform="rotate(-30.0489 57.8079 8.78076)" fill="#E3FDFF"/>
<rect x="61.0211" y="9.02734" width="1.69976" height="4.38165" rx="0.849882" transform="rotate(-30.0489 61.0211 9.02734)" fill="#E3FDFF"/>
<rect x="69.0337" y="8.45117" width="1.69976" height="4.38165" rx="0.849882" transform="rotate(-30.0489 69.0337 8.45117)" fill="#E3FDFF"/>
<path d="M89.6821 28.1526C89.9583 28.1526 90.1821 27.9287 90.1821 27.6526C90.1821 27.3764 89.9583 27.1526 89.6821 27.1526V28.1526ZM90.1427 30.1526C90.4189 30.1526 90.6427 29.9287 90.6427 29.6526C90.6427 29.3764 90.4189 29.1526 90.1427 29.1526V30.1526ZM90.6574 32.1526C90.9336 32.1526 91.1574 31.9287 91.1574 31.6526C91.1574 31.3764 90.9336 31.1526 90.6574 31.1526V32.1526ZM85.4058 30.1526H90.1427V29.1526H85.4058V30.1526ZM85.9205 32.1526H90.6574V31.1526H85.9205V32.1526ZM84.9452 28.1526H89.6821V27.1526H84.9452V28.1526Z" fill="black"/>
<defs>
<linearGradient id="paint0_linear_480_929" x1="25.3232" y1="2.84605" x2="91.5049" y2="32.7108" gradientUnits="userSpaceOnUse">
<stop stop-color="#FFD900"/>
<stop offset="1" stop-color="#FDCC00"/>
</linearGradient>
<linearGradient id="paint1_linear_480_929" x1="25.7375" y1="1.68591" x2="89.9599" y2="30.441" gradientUnits="userSpaceOnUse">
<stop stop-color="#FFD900"/>
<stop offset="1" stop-color="#FDCC00"/>
</linearGradient>
</defs>
</svg>
