<svg width="93" height="38" viewBox="0 0 93 38" fill="none" xmlns="http://www.w3.org/2000/svg">
<path d="M13.5187 36.4529C13.8211 32.4135 17.7606 29.1086 22.7287 29.1086H49.7975H50.2975V28.6086V15.9922C50.2975 10.7437 54.8447 6.65167 60.0642 7.20328L63.4099 7.55686C67.5624 7.99571 71.3474 10.1357 73.8642 13.4676C75.0103 14.9848 74.2076 17.1792 72.353 17.5988L69.7114 18.1964C64.6385 19.344 61.2337 24.1146 61.7975 29.2851L62.2505 33.4401C62.234 35.0385 60.6909 36.4529 58.6248 36.4529H13.5187Z" fill="#FDCC00" stroke="#EBC422"/>
<path d="M63.8656 7.74272V7.74272C65.0024 5.0955 67.7382 3.14334 71.0884 2.58899L72.9368 2.28312" stroke="#EBC422"/>
<path d="M68.8263 9.20463V9.20463C69.9631 6.55741 72.6989 4.60525 76.049 4.0509L77.8975 3.74504" stroke="#EBC422"/>
<path d="M75.4793 1.44477C75.4793 1.87243 75.0194 2.37684 74.2375 2.37684C73.4557 2.37684 72.9957 1.87243 72.9957 1.44477C72.9957 1.01711 73.4557 0.512695 74.2375 0.512695C75.0194 0.512695 75.4793 1.01711 75.4793 1.44477Z" fill="#FDCC00" stroke="#EBC422"/>
<path d="M79.5001 3.62885C79.5001 4.05651 79.0401 4.56093 78.2583 4.56093C77.4764 4.56093 77.0165 4.05651 77.0165 3.62885C77.0165 3.20119 77.4764 2.69678 78.2583 2.69678C79.0401 2.69678 79.5001 3.20119 79.5001 3.62885Z" fill="#FDCC00" stroke="#EBC422"/>
<path d="M15.1096 33.652L61.9697 33.3799L61.6374 34.1237L61.3076 34.766L60.7521 35.3562L59.8321 35.8075L59.0857 35.9811L14.2213 35.9225L15.1096 33.652Z" fill="#EBC422"/>
<path d="M64.1301 20.8455L62.4539 24.3096L61.7835 33.8827L52.4252 34.2973L64.1301 20.8455Z" fill="#EBC422"/>
<path d="M21.0091 29.8983L27.9095 26.5312L31.901 23.4262L36.8432 19.9501L41.729 17.0462L46.9808 14.416L50.2768 14.416L51.7893 12.2622L52.0501 11.5958L52.7832 10.5478L54.6966 9.14644L57.3377 7.90674L60.6795 7.90674L25.914 30.2214L14.1638 35.9351L14.1638 35.6572L14.2801 35.1475L14.8645 33.8331L15.7519 32.588L16.4815 31.8388L18.907 30.2214L21.0091 29.8983Z" fill="#FFDF5C"/>
<path d="M18.4315 22.819C18.4315 13.4252 26.0467 5.81006 35.4405 5.81006V5.81006C44.8342 5.81006 52.4494 13.4252 52.4494 22.819V24.9285C52.4494 28.0962 49.8815 30.6641 46.7139 30.6641H24.1671C20.9994 30.6641 18.4315 28.0962 18.4315 24.9285V22.819Z" fill="url(#paint0_linear_484_979)"/>
<path d="M37.3045 22.3657L37.1248 22.2555C35.6013 21.321 35.2257 19.3731 36.3412 18.1914V18.1914C36.6181 17.8981 36.9689 17.6759 37.3658 17.5424L38.2971 17.2291C40.4004 16.5217 42.851 17.7097 43.6364 19.8176V19.8176C44.3048 21.6112 43.5345 23.4887 41.821 24.2425L40.0452 25.0238C39.4708 25.2765 38.8473 25.4333 38.2013 25.4878V25.4878C34.6542 25.7869 31.3693 23.011 31.2364 19.5969V19.5969C31.1495 17.3636 32.4624 15.4063 34.5827 14.6083L36.0946 14.0393C37.4051 13.5461 38.8564 13.3923 40.3099 13.5927L41.9151 13.8141C44.4118 14.1583 46.5804 15.8679 47.4301 18.1618V18.1618C48.3573 20.6647 47.5146 23.3117 45.3475 24.7037L43.2351 26.0606C41.8372 26.9585 40.1791 27.4641 38.432 27.5252L36.2645 27.6011C32.3892 27.7367 28.7503 25.1346 27.7175 21.4893V21.4893C27.0512 19.1374 27.589 16.7208 29.1641 14.9898L29.5735 14.5398C30.8158 13.1745 32.5292 12.2699 34.4546 11.9627L38.0932 11.3822" stroke="#086832"/>
<rect x="26.6787" y="10.0105" width="3.98914" height="6.95145" rx="1.99457" transform="rotate(42.9625 26.6787 10.0105)" fill="#028F40"/>
<rect x="29.9822" y="7.38062" width="2.86356" height="2.99744" rx="1.43178" transform="rotate(42.9625 29.9822 7.38062)" fill="#028F40"/>
<path d="M19.4879 20.2087V26.2087V26.2087C18.3833 26.2087 17.4879 25.3133 17.4879 24.2087V22.2087C17.4879 21.1042 18.3833 20.2087 19.4879 20.2087V20.2087Z" fill="#CF231F"/>
<defs>
<linearGradient id="paint0_linear_484_979" x1="35.4405" y1="8.00266" x2="21.73" y2="0.746531" gradientUnits="userSpaceOnUse">
<stop stop-color="#017A36"/>
<stop offset="1" stop-color="#007C37"/>
</linearGradient>
</defs>
</svg>
