<svg width="14" height="25" viewBox="0 0 14 25" fill="none" xmlns="http://www.w3.org/2000/svg">
<path d="M0.691429 3.92033C0.691429 2.81576 1.58686 1.92033 2.69143 1.92033H11.2645C12.3691 1.92033 13.2645 2.81576 13.2645 3.92033V7.46992C13.2645 8.10691 12.9611 8.70581 12.4475 9.08257L8.14141 12.2412C7.43516 12.7593 6.47399 12.7575 5.76964 12.2369L1.5026 9.08283C0.992429 8.70572 0.691429 8.10893 0.691429 7.47451V3.92033Z" fill="#FFEFB4"/>
<path d="M2.16478 5.56645C2.16478 4.46188 3.06021 3.56645 4.16478 3.56645H9.79117C10.8957 3.56645 11.7912 4.46188 11.7912 5.56645V7.57792C11.7912 8.21491 11.4877 8.81381 10.9741 9.19057L8.14704 11.2643C7.4408 11.7824 6.47962 11.7806 5.77528 11.26L2.97596 9.19083C2.46578 8.81372 2.16478 8.21693 2.16478 7.58251V5.56645Z" fill="#FDCC00"/>
<path d="M13.2645 21.5844C13.2645 22.6889 12.3691 23.5844 11.2645 23.5844H2.69141C1.58684 23.5844 0.691406 22.6889 0.691406 21.5844V18.0233C0.691406 17.3928 0.988794 16.7991 1.49383 16.4215L5.98058 13.0671C6.71353 12.5191 7.72491 12.5385 8.4363 13.1142L12.5226 16.4211C12.9919 16.8008 13.2645 17.3722 13.2645 17.9758V21.5844Z" fill="#FFEFB4"/>
<path d="M1.39711 23.5844L6.87073 21.5942C7.09647 21.5121 7.34421 21.514 7.56865 21.5996L12.775 23.5844H1.39711Z" fill="#FDCC00"/>
<path d="M0.691454 1.29168C0.691454 0.944483 0.972912 0.663025 1.32011 0.663025H12.6359C12.9831 0.663025 13.2645 0.944483 13.2645 1.29168C13.2645 1.63888 12.9831 1.92033 12.6359 1.92033H1.32011C0.972912 1.92033 0.691454 1.63888 0.691454 1.29168Z" fill="#FFEFB4"/>
<path d="M0.691429 24.213C0.691429 23.8658 0.972888 23.5843 1.32008 23.5843H12.6359C12.9831 23.5843 13.2645 23.8658 13.2645 24.213C13.2645 24.5602 12.9831 24.8417 12.6359 24.8417H1.32008C0.972888 24.8417 0.691429 24.5602 0.691429 24.213Z" fill="#FFEFB4"/>
<path d="M7.29187 14.3256C7.29187 14.8416 7.13439 15.2598 6.94013 15.2598C6.74586 15.2598 6.58838 14.8416 6.58838 14.3256C6.58838 13.8096 6.74586 13.3914 6.94013 13.3914C7.13439 13.3914 7.29187 13.8096 7.29187 14.3256Z" fill="#FDCC00"/>
<path d="M7.5837 16.1844C7.5837 16.7004 7.43962 17.1187 7.26189 17.1187C7.08417 17.1187 6.94009 16.7004 6.94009 16.1844C6.94009 15.6685 7.08417 15.2502 7.26189 15.2502C7.43962 15.2502 7.5837 15.6685 7.5837 16.1844Z" fill="#FDCC00"/>
<path d="M7.43774 19.3472C7.43774 19.77 7.359 20.1127 7.26187 20.1127C7.16473 20.1127 7.08599 19.77 7.08599 19.3472C7.08599 18.9245 7.16473 18.5818 7.26187 18.5818C7.359 18.5818 7.43774 18.9245 7.43774 19.3472Z" fill="#FDCC00"/>
</svg>
