<svg width="24" height="24" viewBox="0 0 24 24" fill="none" xmlns="http://www.w3.org/2000/svg">
<path d="M11.0716 1.63726C11.3709 0.715945 12.6743 0.715945 12.9737 1.63726L15.1115 8.21681C15.2454 8.62884 15.6293 8.9078 16.0626 8.9078H22.9807C23.9494 8.9078 24.3522 10.1474 23.5685 10.7168L17.9716 14.7832C17.6211 15.0378 17.4744 15.4892 17.6083 15.9012L19.7462 22.4808C20.0455 23.4021 18.991 24.1682 18.2073 23.5988L12.6104 19.5324C12.2599 19.2778 11.7853 19.2778 11.4348 19.5324L5.83793 23.5988C5.05421 24.1682 3.99973 23.4021 4.29909 22.4808L6.43691 15.9012C6.57079 15.4892 6.42413 15.0378 6.07364 14.7832L0.476737 10.7168C-0.306976 10.1474 0.0957996 8.9078 1.06452 8.9078H7.98268C8.4159 8.9078 8.79986 8.62884 8.93373 8.21681L11.0716 1.63726Z" fill="#FFEFB4"/>
</svg>
