<svg width="66" height="67" viewBox="0 0 66 67" fill="none" xmlns="http://www.w3.org/2000/svg">
<path d="M0 56.3147L0 10.5033L66 10.5033L66 56.3147L0 56.3147Z" fill="url(#paint0_linear_463_800)"/>
<rect y="33.9912" width="1.98788" height="4" transform="rotate(-90 0 33.9912)" fill="#D9D9D9"/>
<rect x="9.19995" y="33.9912" width="1.98788" height="8" transform="rotate(-90 9.19995 33.9912)" fill="#D9D9D9"/>
<rect x="22.3999" y="33.9912" width="1.98788" height="8" transform="rotate(-90 22.3999 33.9912)" fill="#D9D9D9"/>
<rect x="35.6001" y="33.9912" width="1.98788" height="8" transform="rotate(-90 35.6001 33.9912)" fill="#D9D9D9"/>
<rect x="48.8" y="33.9912" width="1.98788" height="8" transform="rotate(-90 48.8 33.9912)" fill="#D9D9D9"/>
<rect x="62" y="33.9912" width="1.98788" height="4" transform="rotate(-90 62 33.9912)" fill="#D9D9D9"/>
<rect y="10.4412" width="66" height="1.98788" fill="#787378"/>
<rect y="54.3269" width="66" height="1.98788" fill="#474851"/>
<defs>
<linearGradient id="paint0_linear_463_800" x1="35.4319" y1="56.3147" x2="35.4319" y2="10.5033" gradientUnits="userSpaceOnUse">
<stop stop-color="#4F484E"/>
<stop offset="0.505" stop-color="#413840"/>
<stop offset="1" stop-color="#4B434B"/>
</linearGradient>
</defs>
</svg>
