<svg width="67" height="67" viewBox="0 0 67 67" fill="none" xmlns="http://www.w3.org/2000/svg">
<path d="M65.9995 10.4746V56.4529H55.9878V66.6357L9.99243 66.7246V40.5904C9.99243 23.9579 23.4239 10.4746 39.9924 10.4746H65.9995Z" fill="url(#paint0_linear_462_885)"/>
<path d="M11.0322 66.6472V38.7214C12.1428 21.5939 26.4246 11.386 39.0032 11.386C39.0032 11.386 55.6803 11.7226 66.2123 11.4881" stroke="#787378" stroke-width="2"/>
<rect x="65.9995" y="32.1091" width="1.99147" height="3.98017" transform="rotate(90 65.9995 32.1091)" fill="#D9D9D9"/>
<rect x="55.2485" y="32.1091" width="1.99147" height="7.96034" transform="rotate(90 55.2485 32.1091)" fill="#D9D9D9"/>
<rect x="32.5574" y="47.6553" width="1.99009" height="7.9659" fill="#D9D9D9"/>
<path d="M32.5291 32.1091L40.5167 32.1091V34.0827H34.5191V40.075H32.5291V32.1091Z" fill="#D9D9D9"/>
<rect x="32.5574" y="62.7416" width="1.99009" height="3.98295" fill="#D9D9D9"/>
<rect x="55.9993" y="56.4185" width="2" height="10.0002" transform="rotate(-90 55.9993 56.4185)" fill="#474851"/>
<rect x="53.9993" y="54.4185" width="2" height="12.2266" fill="#474851"/>
<defs>
<linearGradient id="paint0_linear_462_885" x1="55.2295" y1="63.1592" x2="18.7676" y2="23.4185" gradientUnits="userSpaceOnUse">
<stop stop-color="#413840"/>
<stop offset="1" stop-color="#574E56"/>
</linearGradient>
</defs>
</svg>
