<svg width="66" height="67" viewBox="0 0 66 67" fill="none" xmlns="http://www.w3.org/2000/svg">
<path d="M56 66.37L10 66.37L10 0.369995L56 0.369995L56 66.37Z" fill="url(#paint0_linear_460_767)"/>
<rect x="34.5" y="66.37" width="2" height="4" transform="rotate(-180 34.5 66.37)" fill="#D9D9D9"/>
<rect x="34.5" y="57.17" width="2" height="8" transform="rotate(-180 34.5 57.17)" fill="#D9D9D9"/>
<rect x="34.5" y="43.97" width="2" height="8" transform="rotate(-180 34.5 43.97)" fill="#D9D9D9"/>
<rect x="34.5" y="30.77" width="2" height="8" transform="rotate(-180 34.5 30.77)" fill="#D9D9D9"/>
<rect x="34.5" y="17.5699" width="2" height="8" transform="rotate(-180 34.5 17.5699)" fill="#D9D9D9"/>
<rect x="34.5" y="4.37" width="2" height="4" transform="rotate(-180 34.5 4.37)" fill="#D9D9D9"/>
<rect x="10" y="66.37" width="66" height="2" transform="rotate(-90 10 66.37)" fill="#787378"/>
<rect x="54" y="66.37" width="66" height="2" transform="rotate(-90 54 66.37)" fill="#474851"/>
<defs>
<linearGradient id="paint0_linear_460_767" x1="56" y1="45.3456" x2="14.7499" y2="13.8315" gradientUnits="userSpaceOnUse">
<stop stop-color="#413840"/>
<stop offset="0.505" stop-color="#413840"/>
<stop offset="1" stop-color="#504850"/>
</linearGradient>
</defs>
</svg>
