<svg width="66" height="66" viewBox="0 0 66 66" fill="none" xmlns="http://www.w3.org/2000/svg">
<path d="M0 56.0605L0 10.6375L65.8 10.6375L65.8 56.0605L0 56.0605Z" fill="url(#paint0_linear_462_859)"/>
<rect y="33.697" width="1.98788" height="4" transform="rotate(-90 0 33.697)" fill="#D9D9D9"/>
<rect x="9.19995" y="33.697" width="1.98788" height="8" transform="rotate(-90 9.19995 33.697)" fill="#D9D9D9"/>
<rect x="22.3999" y="33.697" width="1.98788" height="8" transform="rotate(-90 22.3999 33.697)" fill="#D9D9D9"/>
<rect x="35.6001" y="33.697" width="1.98788" height="8" transform="rotate(-90 35.6001 33.697)" fill="#D9D9D9"/>
<rect x="48.8" y="33.697" width="1.98788" height="8" transform="rotate(-90 48.8 33.697)" fill="#D9D9D9"/>
<rect x="62" y="33.697" width="1.98788" height="4" transform="rotate(-90 62 33.697)" fill="#D9D9D9"/>
<rect y="10.5382" width="66" height="1.98788" fill="#787378"/>
<rect y="53.6752" width="66" height="1.98788" fill="#474851"/>
<defs>
<linearGradient id="paint0_linear_462_859" x1="35.3245" y1="56.0605" x2="35.3245" y2="10.6375" gradientUnits="userSpaceOnUse">
<stop stop-color="#4F484E"/>
<stop offset="0.505" stop-color="#413840"/>
<stop offset="1" stop-color="#595159"/>
</linearGradient>
</defs>
</svg>
