<svg width="67" height="67" viewBox="0 0 67 67" fill="none" xmlns="http://www.w3.org/2000/svg">
<path d="M9.77121 25.3716L25.7575 9.44306L41.6324 9.44309L57.5803 25.2339L57.5803 41.1793L41.6341 56.8901L25.7565 56.8901L9.77133 41.0179L9.77121 25.3716Z" fill="#CF231F" stroke="white" stroke-width="2"/>
<path d="M23.2808 31.3383C23.241 30.9661 23.0734 30.6763 22.778 30.4689C22.4854 30.2616 22.1047 30.1579 21.6359 30.1579C21.3064 30.1579 21.0237 30.2076 20.7879 30.307C20.5521 30.4064 20.3717 30.5414 20.2467 30.7118C20.1217 30.8823 20.0578 31.0769 20.055 31.2956C20.055 31.4775 20.0962 31.6351 20.1785 31.7687C20.2638 31.9022 20.3788 32.0158 20.5237 32.1096C20.6686 32.2005 20.8291 32.2772 21.0052 32.3397C21.1814 32.4022 21.3589 32.4547 21.5379 32.4973L22.3561 32.7019C22.6856 32.7786 23.0024 32.8823 23.3064 33.013C23.6132 33.1437 23.8874 33.3084 24.1288 33.5073C24.3731 33.7062 24.5663 33.9462 24.7084 34.2275C24.8504 34.5087 24.9214 34.8383 24.9214 35.2161C24.9214 35.7275 24.7908 36.1777 24.5294 36.5669C24.268 36.9533 23.8902 37.2559 23.3959 37.4746C22.9044 37.6905 22.3092 37.7985 21.6104 37.7985C20.9314 37.7985 20.3419 37.6934 19.8419 37.4831C19.3447 37.2729 18.9555 36.9661 18.6743 36.5627C18.3959 36.1593 18.2453 35.6678 18.2226 35.0883H19.778C19.8007 35.3922 19.8945 35.6451 20.0592 35.8468C20.224 36.0485 20.4385 36.1991 20.7027 36.2985C20.9697 36.3979 21.268 36.4476 21.5976 36.4476C21.9413 36.4476 22.2425 36.3965 22.501 36.2942C22.7624 36.1891 22.9669 36.0442 23.1146 35.8596C23.2624 35.6721 23.3376 35.4533 23.3405 35.2033C23.3376 34.976 23.2709 34.7885 23.1402 34.6408C23.0095 34.4902 22.8263 34.3652 22.5905 34.2658C22.3575 34.1635 22.0848 34.0726 21.7723 33.9931L20.7794 33.7374C20.0606 33.5527 19.4925 33.2729 19.0749 32.8979C18.6601 32.5201 18.4527 32.0187 18.4527 31.3937C18.4527 30.8794 18.5919 30.4292 18.8703 30.0428C19.1516 29.6564 19.5337 29.3567 20.0166 29.1437C20.4996 28.9277 21.0464 28.8198 21.6572 28.8198C22.2766 28.8198 22.8192 28.9277 23.2851 29.1437C23.7538 29.3567 24.1217 29.6536 24.3888 30.0343C24.6558 30.4121 24.7936 30.8468 24.8021 31.3383H23.2808ZM25.9474 30.2644V28.9391H32.9104V30.2644H30.213V37.6664H28.6448V30.2644H25.9474ZM41.6643 33.3027C41.6643 34.2431 41.4882 35.0485 41.1359 35.7189C40.7865 36.3866 40.3092 36.8979 39.7041 37.253C39.1018 37.6081 38.4186 37.7857 37.6544 37.7857C36.8902 37.7857 36.2055 37.6081 35.6004 37.253C34.9981 36.8951 34.5209 36.3823 34.1686 35.7147C33.8192 35.0442 33.6445 34.2402 33.6445 33.3027C33.6445 32.3624 33.8192 31.5584 34.1686 30.8908C34.5209 30.2204 34.9981 29.7076 35.6004 29.3525C36.2055 28.9973 36.8902 28.8198 37.6544 28.8198C38.4186 28.8198 39.1018 28.9973 39.7041 29.3525C40.3092 29.7076 40.7865 30.2204 41.1359 30.8908C41.4882 31.5584 41.6643 32.3624 41.6643 33.3027ZM40.0749 33.3027C40.0749 32.6408 39.9712 32.0826 39.7638 31.628C39.5592 31.1706 39.2751 30.8255 38.9115 30.5925C38.5479 30.3567 38.1288 30.2388 37.6544 30.2388C37.18 30.2388 36.7609 30.3567 36.3973 30.5925C36.0337 30.8255 35.7481 31.1706 35.5408 31.628C35.3362 32.0826 35.2339 32.6408 35.2339 33.3027C35.2339 33.9647 35.3362 34.5243 35.5408 34.9817C35.7481 35.4363 36.0337 35.7814 36.3973 36.0172C36.7609 36.2502 37.18 36.3667 37.6544 36.3667C38.1288 36.3667 38.5479 36.2502 38.9115 36.0172C39.2751 35.7814 39.5592 35.4363 39.7638 34.9817C39.9712 34.5243 40.0749 33.9647 40.0749 33.3027ZM43.159 37.6664V28.9391H46.4317C47.1022 28.9391 47.6647 29.0641 48.1192 29.3141C48.5766 29.5641 48.9218 29.9079 49.1548 30.3454C49.3905 30.78 49.5084 31.2743 49.5084 31.8283C49.5084 32.388 49.3905 32.8851 49.1548 33.3198C48.919 33.7544 48.5709 34.0968 48.1107 34.3468C47.6505 34.5939 47.0837 34.7175 46.4104 34.7175H44.2414V33.4178H46.1974C46.5894 33.4178 46.9104 33.3496 47.1604 33.2133C47.4104 33.0769 47.5951 32.8894 47.7144 32.6508C47.8366 32.4121 47.8976 32.138 47.8976 31.8283C47.8976 31.5187 47.8366 31.2459 47.7144 31.0101C47.5951 30.7743 47.409 30.5911 47.1562 30.4604C46.9062 30.3269 46.5837 30.2601 46.1888 30.2601H44.74V37.6664H43.159Z" fill="white"/>
</svg>
