<svg width="66" height="67" viewBox="0 0 66 67" fill="none" xmlns="http://www.w3.org/2000/svg">
<path d="M9.10349 25.5751L25.0898 9.64661L40.9646 9.64664L56.9126 25.4375L56.9126 41.3828L40.9663 57.0936L25.0888 57.0936L9.1036 41.2215L9.10349 25.5751Z" fill="url(#paint0_linear_467_884)" stroke="white" stroke-width="2"/>
<path d="M22.613 31.5419C22.5732 31.1697 22.4056 30.8799 22.1101 30.6726C21.8175 30.4652 21.4368 30.3615 20.9681 30.3615C20.6385 30.3615 20.3559 30.4112 20.1201 30.5106C19.8843 30.6101 19.7039 30.745 19.5789 30.9154C19.4539 31.0859 19.39 31.2805 19.3871 31.4993C19.3871 31.6811 19.4283 31.8387 19.5107 31.9723C19.5959 32.1058 19.711 32.2194 19.8559 32.3132C20.0008 32.4041 20.1613 32.4808 20.3374 32.5433C20.5135 32.6058 20.6911 32.6583 20.8701 32.701L21.6883 32.9055C22.0178 32.9822 22.3346 33.0859 22.6385 33.2166C22.9454 33.3473 23.2195 33.512 23.461 33.7109C23.7053 33.9098 23.8985 34.1498 24.0405 34.4311C24.1826 34.7123 24.2536 35.0419 24.2536 35.4197C24.2536 35.9311 24.1229 36.3814 23.8616 36.7706C23.6002 37.1569 23.2223 37.4595 22.728 37.6782C22.2366 37.8941 21.6414 38.0021 20.9425 38.0021C20.2635 38.0021 19.6741 37.897 19.1741 37.6868C18.6769 37.4765 18.2877 37.1697 18.0064 36.7663C17.728 36.3629 17.5775 35.8714 17.5547 35.2919H19.1101C19.1329 35.5958 19.2266 35.8487 19.3914 36.0504C19.5562 36.2521 19.7706 36.4027 20.0348 36.5021C20.3019 36.6015 20.6002 36.6512 20.9297 36.6512C21.2735 36.6512 21.5746 36.6001 21.8331 36.4978C22.0945 36.3927 22.2991 36.2478 22.4468 36.0632C22.5945 35.8757 22.6698 35.6569 22.6726 35.4069C22.6698 35.1797 22.603 34.9922 22.4723 34.8444C22.3417 34.6939 22.1584 34.5689 21.9226 34.4694C21.6897 34.3672 21.4169 34.2762 21.1044 34.1967L20.1116 33.941C19.3928 33.7564 18.8246 33.4765 18.407 33.1015C17.9922 32.7237 17.7848 32.2223 17.7848 31.5973C17.7848 31.0831 17.9241 30.6328 18.2025 30.2464C18.4837 29.8601 18.8658 29.5603 19.3488 29.3473C19.8317 29.1314 20.3786 29.0234 20.9894 29.0234C21.6087 29.0234 22.1513 29.1314 22.6172 29.3473C23.086 29.5603 23.4539 29.8572 23.7209 30.2379C23.988 30.6157 24.1258 31.0504 24.1343 31.5419H22.613ZM25.2795 30.468V29.1427H32.2426V30.468H29.5451V37.87H27.977V30.468H25.2795ZM40.9965 33.5064C40.9965 34.4467 40.8204 35.2521 40.4681 35.9226C40.1187 36.5902 39.6414 37.1015 39.0363 37.4566C38.434 37.8118 37.7508 37.9893 36.9866 37.9893C36.2223 37.9893 35.5377 37.8118 34.9326 37.4566C34.3303 37.0987 33.853 36.5859 33.5008 35.9183C33.1513 35.2478 32.9766 34.4439 32.9766 33.5064C32.9766 32.566 33.1513 31.762 33.5008 31.0944C33.853 30.424 34.3303 29.9112 34.9326 29.5561C35.5377 29.201 36.2223 29.0234 36.9866 29.0234C37.7508 29.0234 38.434 29.201 39.0363 29.5561C39.6414 29.9112 40.1187 30.424 40.4681 31.0944C40.8204 31.762 40.9965 32.566 40.9965 33.5064ZM39.407 33.5064C39.407 32.8444 39.3033 32.2862 39.0959 31.8316C38.8914 31.3743 38.6073 31.0291 38.2437 30.7961C37.88 30.5603 37.461 30.4424 36.9866 30.4424C36.5121 30.4424 36.0931 30.5603 35.7294 30.7961C35.3658 31.0291 35.0803 31.3743 34.8729 31.8316C34.6684 32.2862 34.5661 32.8444 34.5661 33.5064C34.5661 34.1683 34.6684 34.7279 34.8729 35.1853C35.0803 35.6399 35.3658 35.9851 35.7294 36.2208C36.0931 36.4538 36.5121 36.5703 36.9866 36.5703C37.461 36.5703 37.88 36.4538 38.2437 36.2208C38.6073 35.9851 38.8914 35.6399 39.0959 35.1853C39.3033 34.7279 39.407 34.1683 39.407 33.5064ZM42.4912 37.87V29.1427H45.7639C46.4343 29.1427 46.9968 29.2677 47.4514 29.5177C47.9088 29.7677 48.254 30.1115 48.4869 30.549C48.7227 30.9836 48.8406 31.4779 48.8406 32.0319C48.8406 32.5916 48.7227 33.0887 48.4869 33.5234C48.2511 33.9581 47.9031 34.3004 47.4429 34.5504C46.9826 34.7976 46.4159 34.9211 45.7426 34.9211H43.5736V33.6214H45.5295C45.9216 33.6214 46.2426 33.5532 46.4926 33.4169C46.7426 33.2805 46.9272 33.093 47.0466 32.8544C47.1687 32.6157 47.2298 32.3416 47.2298 32.0319C47.2298 31.7223 47.1687 31.4495 47.0466 31.2137C46.9272 30.9779 46.7412 30.7947 46.4883 30.664C46.2383 30.5305 45.9159 30.4637 45.521 30.4637H44.0721V37.87H42.4912Z" fill="white"/>
<defs>
<linearGradient id="paint0_linear_467_884" x1="20.9363" y1="15.733" x2="43.1883" y2="54.2364" gradientUnits="userSpaceOnUse">
<stop stop-color="#E12723"/>
<stop offset="1" stop-color="#BD1915"/>
</linearGradient>
</defs>
</svg>
