<svg width="67" height="67" viewBox="0 0 67 67" fill="none" xmlns="http://www.w3.org/2000/svg">
<path d="M10.4868 0.438721H56.5059V10.4504H66.7868V56.4458H40.6293C23.9821 56.4458 10.4868 43.0143 10.4868 26.4458V0.438721Z" fill="url(#paint0_linear_462_872)"/>
<path d="M66.6584 55.4053H38.9597C21.7691 54.2947 11.5236 40.0129 11.5236 27.4343C11.5236 27.4343 11.7239 10.97 11.4885 0.437965" stroke="url(#paint1_linear_462_872)" stroke-opacity="0.2" stroke-width="2"/>
<rect x="33.0413" y="0.438721" width="1.93869" height="4" fill="#D9D9D9"/>
<rect x="33.0413" y="11.2435" width="1.93869" height="8" fill="#D9D9D9"/>
<rect x="48.1753" y="34.0476" width="2" height="7.75476" transform="rotate(-90 48.1753 34.0476)" fill="#D9D9D9"/>
<path d="M33.0413 34.0759L33.0413 26.0485H34.9625V32.0759H40.796V34.0759H33.0413Z" fill="#D9D9D9"/>
<rect x="62.9094" y="34.0476" width="2" height="3.87738" transform="rotate(-90 62.9094 34.0476)" fill="#D9D9D9"/>
<rect x="56.2979" y="10.439" width="2" height="10.0002" transform="rotate(-180 56.2979 10.439)" fill="#474851"/>
<rect x="54.5603" y="12.439" width="2" height="12.2266" transform="rotate(-90 54.5603 12.439)" fill="url(#paint2_linear_462_872)" fill-opacity="0.2"/>
<defs>
<linearGradient id="paint0_linear_462_872" x1="14.2974" y1="2.67194" x2="35.9737" y2="58.9254" gradientUnits="userSpaceOnUse">
<stop stop-color="#4A424A"/>
<stop offset="0.505" stop-color="#413840"/>
<stop offset="1" stop-color="#4A424A"/>
</linearGradient>
<linearGradient id="paint1_linear_462_872" x1="66.6584" y1="55.4053" x2="11.4885" y2="0.437968" gradientUnits="userSpaceOnUse">
<stop stop-color="#29292F"/>
<stop offset="0.5" stop-color="#EEE6E6"/>
</linearGradient>
<linearGradient id="paint2_linear_462_872" x1="55.5603" y1="12.7545" x2="59.1466" y2="13.9554" gradientUnits="userSpaceOnUse">
<stop stop-color="#1A1B1F"/>
<stop offset="0.73" stop-color="#E7D3E7"/>
</linearGradient>
</defs>
</svg>
